<svg width="1440" height="229" viewBox="0 0 1440 229" fill="none" xmlns="http://www.w3.org/2000/svg">
<rect width="1440" height="229" fill="#F9F9F9"/>
<path d="M183.926 125.398C181.814 125.398 179.939 125.043 178.301 124.332C176.672 123.622 175.394 122.652 174.466 121.42C173.547 120.18 173.093 118.774 173.102 117.202C173.093 115.98 173.358 114.858 173.898 113.835C174.438 112.812 175.167 111.96 176.085 111.278C177.013 110.587 178.045 110.147 179.182 109.957V109.759C177.686 109.427 176.473 108.665 175.545 107.472C174.627 106.269 174.172 104.882 174.182 103.31C174.172 101.813 174.589 100.478 175.432 99.304C176.275 98.1297 177.43 97.2064 178.898 96.5341C180.366 95.8523 182.042 95.5114 183.926 95.5114C185.792 95.5114 187.454 95.8523 188.912 96.5341C190.38 97.2064 191.535 98.1297 192.378 99.304C193.23 100.478 193.656 101.813 193.656 103.31C193.656 104.882 193.188 106.269 192.25 107.472C191.322 108.665 190.124 109.427 188.656 109.759V109.957C189.793 110.147 190.815 110.587 191.724 111.278C192.643 111.96 193.372 112.812 193.912 113.835C194.461 114.858 194.736 115.98 194.736 117.202C194.736 118.774 194.272 120.18 193.344 121.42C192.416 122.652 191.137 123.622 189.509 124.332C187.889 125.043 186.028 125.398 183.926 125.398ZM183.926 121.335C185.015 121.335 185.962 121.151 186.767 120.781C187.572 120.402 188.197 119.872 188.642 119.19C189.087 118.509 189.314 117.723 189.324 116.832C189.314 115.904 189.073 115.085 188.599 114.375C188.135 113.655 187.496 113.092 186.682 112.685C185.877 112.277 184.958 112.074 183.926 112.074C182.884 112.074 181.956 112.277 181.142 112.685C180.328 113.092 179.684 113.655 179.21 114.375C178.746 115.085 178.519 115.904 178.528 116.832C178.519 117.723 178.737 118.509 179.182 119.19C179.627 119.863 180.252 120.388 181.057 120.767C181.871 121.146 182.828 121.335 183.926 121.335ZM183.926 108.082C184.816 108.082 185.602 107.902 186.284 107.543C186.975 107.183 187.52 106.681 187.918 106.037C188.315 105.393 188.519 104.65 188.528 103.807C188.519 102.973 188.32 102.244 187.932 101.619C187.544 100.985 187.004 100.497 186.312 100.156C185.621 99.8059 184.826 99.6307 183.926 99.6307C183.008 99.6307 182.198 99.8059 181.497 100.156C180.806 100.497 180.266 100.985 179.878 101.619C179.499 102.244 179.314 102.973 179.324 103.807C179.314 104.65 179.504 105.393 179.892 106.037C180.29 106.671 180.834 107.173 181.526 107.543C182.226 107.902 183.027 108.082 183.926 108.082ZM209.519 125.398C207.625 125.398 205.93 125.043 204.434 124.332C202.938 123.613 201.749 122.628 200.869 121.378C199.997 120.128 199.533 118.698 199.477 117.088H204.59C204.685 118.281 205.201 119.257 206.138 120.014C207.076 120.762 208.203 121.136 209.519 121.136C210.551 121.136 211.47 120.9 212.275 120.426C213.08 119.953 213.714 119.295 214.178 118.452C214.642 117.609 214.87 116.648 214.86 115.568C214.87 114.47 214.638 113.494 214.164 112.642C213.691 111.79 213.042 111.122 212.218 110.639C211.394 110.147 210.447 109.901 209.377 109.901C208.506 109.891 207.649 110.052 206.806 110.384C205.963 110.715 205.296 111.151 204.803 111.69L200.045 110.909L201.565 95.9091H218.44V100.312H205.925L205.087 108.026H205.258C205.798 107.391 206.56 106.866 207.545 106.449C208.53 106.023 209.609 105.81 210.783 105.81C212.545 105.81 214.117 106.226 215.499 107.06C216.882 107.884 217.971 109.02 218.766 110.469C219.562 111.918 219.96 113.575 219.96 115.44C219.96 117.363 219.514 119.077 218.624 120.582C217.744 122.079 216.517 123.258 214.945 124.119C213.383 124.972 211.574 125.398 209.519 125.398ZM235.471 125.554C233.132 125.554 231.124 124.962 229.448 123.778C227.781 122.585 226.498 120.866 225.599 118.622C224.709 116.368 224.263 113.655 224.263 110.483C224.273 107.311 224.723 104.612 225.613 102.386C226.513 100.152 227.796 98.447 229.462 97.2727C231.138 96.0985 233.141 95.5114 235.471 95.5114C237.8 95.5114 239.803 96.0985 241.479 97.2727C243.156 98.447 244.439 100.152 245.329 102.386C246.228 104.621 246.678 107.32 246.678 110.483C246.678 113.665 246.228 116.383 245.329 118.636C244.439 120.881 243.156 122.595 241.479 123.778C239.813 124.962 237.81 125.554 235.471 125.554ZM235.471 121.108C237.289 121.108 238.724 120.213 239.775 118.423C240.835 116.624 241.366 113.977 241.366 110.483C241.366 108.172 241.124 106.231 240.641 104.659C240.158 103.087 239.477 101.903 238.596 101.108C237.715 100.303 236.674 99.9006 235.471 99.9006C233.662 99.9006 232.232 100.8 231.181 102.599C230.13 104.389 229.6 107.017 229.59 110.483C229.581 112.803 229.813 114.754 230.286 116.335C230.769 117.917 231.451 119.11 232.332 119.915C233.212 120.71 234.259 121.108 235.471 121.108ZM177.108 153.227C176.057 153.227 175.15 152.995 174.388 152.531C173.63 152.062 173.045 151.409 172.634 150.571C172.226 149.728 172.023 148.748 172.023 147.631C172.023 146.513 172.226 145.528 172.634 144.676C173.045 143.819 173.618 143.152 174.352 142.673C175.091 142.19 175.953 141.949 176.938 141.949C177.506 141.949 178.067 142.044 178.621 142.233C179.175 142.422 179.679 142.73 180.134 143.156C180.588 143.578 180.95 144.136 181.22 144.832C181.49 145.528 181.625 146.385 181.625 147.403V148.114H173.216V146.665H179.92C179.92 146.049 179.797 145.5 179.551 145.017C179.31 144.534 178.964 144.153 178.514 143.874C178.069 143.594 177.544 143.455 176.938 143.455C176.27 143.455 175.692 143.62 175.205 143.952C174.722 144.278 174.35 144.705 174.089 145.23C173.829 145.756 173.699 146.319 173.699 146.92V147.886C173.699 148.71 173.841 149.409 174.125 149.982C174.414 150.55 174.814 150.983 175.325 151.281C175.837 151.575 176.431 151.722 177.108 151.722C177.548 151.722 177.946 151.66 178.301 151.537C178.661 151.409 178.971 151.22 179.232 150.969C179.492 150.713 179.693 150.396 179.835 150.017L181.455 150.472C181.284 151.021 180.998 151.504 180.595 151.92C180.193 152.332 179.696 152.654 179.104 152.886C178.512 153.114 177.847 153.227 177.108 153.227ZM184.175 153V142.091H185.794V143.795H185.936C186.163 143.213 186.53 142.761 187.037 142.439C187.544 142.112 188.152 141.949 188.862 141.949C189.582 141.949 190.181 142.112 190.659 142.439C191.142 142.761 191.518 143.213 191.788 143.795H191.902C192.181 143.232 192.6 142.785 193.159 142.453C193.718 142.117 194.388 141.949 195.169 141.949C196.144 141.949 196.942 142.254 197.562 142.865C198.183 143.471 198.493 144.416 198.493 145.699V153H196.817V145.699C196.817 144.894 196.597 144.319 196.156 143.973C195.716 143.627 195.197 143.455 194.601 143.455C193.834 143.455 193.24 143.687 192.818 144.151C192.397 144.61 192.186 145.192 192.186 145.898V153H190.482V145.528C190.482 144.908 190.28 144.409 189.878 144.03C189.475 143.646 188.957 143.455 188.322 143.455C187.887 143.455 187.48 143.571 187.101 143.803C186.727 144.035 186.424 144.357 186.192 144.768C185.964 145.176 185.851 145.647 185.851 146.182V153H184.175ZM201.558 157.091V142.091H203.177V143.824H203.376C203.499 143.634 203.669 143.393 203.887 143.099C204.11 142.801 204.427 142.536 204.839 142.304C205.255 142.067 205.819 141.949 206.529 141.949C207.448 141.949 208.257 142.179 208.958 142.638C209.659 143.097 210.206 143.748 210.599 144.591C210.992 145.434 211.188 146.428 211.188 147.574C211.188 148.729 210.992 149.731 210.599 150.578C210.206 151.421 209.661 152.074 208.965 152.538C208.269 152.998 207.467 153.227 206.558 153.227C205.857 153.227 205.296 153.111 204.874 152.879C204.453 152.643 204.129 152.375 203.901 152.077C203.674 151.774 203.499 151.523 203.376 151.324H203.234V157.091H201.558ZM203.205 147.545C203.205 148.369 203.326 149.096 203.567 149.726C203.809 150.351 204.162 150.841 204.626 151.196C205.09 151.546 205.658 151.722 206.33 151.722C207.031 151.722 207.616 151.537 208.085 151.168C208.558 150.794 208.913 150.292 209.15 149.662C209.391 149.027 209.512 148.322 209.512 147.545C209.512 146.778 209.394 146.087 209.157 145.472C208.925 144.851 208.572 144.361 208.099 144.001C207.63 143.637 207.04 143.455 206.33 143.455C205.648 143.455 205.076 143.627 204.612 143.973C204.147 144.314 203.797 144.792 203.56 145.408C203.324 146.018 203.205 146.731 203.205 147.545ZM213.745 153V142.091H215.364V143.739H215.478C215.677 143.199 216.037 142.761 216.558 142.425C217.078 142.089 217.665 141.92 218.319 141.92C218.442 141.92 218.596 141.923 218.781 141.928C218.965 141.932 219.105 141.939 219.2 141.949V143.653C219.143 143.639 219.013 143.618 218.809 143.589C218.61 143.556 218.399 143.54 218.177 143.54C217.647 143.54 217.173 143.651 216.756 143.874C216.344 144.091 216.018 144.394 215.776 144.783C215.54 145.166 215.421 145.604 215.421 146.097V153H213.745ZM225.428 153.227C224.377 153.227 223.47 152.995 222.708 152.531C221.951 152.062 221.366 151.409 220.954 150.571C220.547 149.728 220.343 148.748 220.343 147.631C220.343 146.513 220.547 145.528 220.954 144.676C221.366 143.819 221.939 143.152 222.673 142.673C223.411 142.19 224.273 141.949 225.258 141.949C225.826 141.949 226.387 142.044 226.941 142.233C227.495 142.422 227.999 142.73 228.454 143.156C228.908 143.578 229.271 144.136 229.54 144.832C229.81 145.528 229.945 146.385 229.945 147.403V148.114H221.536V146.665H228.241C228.241 146.049 228.118 145.5 227.871 145.017C227.63 144.534 227.284 144.153 226.835 143.874C226.389 143.594 225.864 143.455 225.258 143.455C224.59 143.455 224.013 143.62 223.525 143.952C223.042 144.278 222.67 144.705 222.41 145.23C222.149 145.756 222.019 146.319 222.019 146.92V147.886C222.019 148.71 222.161 149.409 222.445 149.982C222.734 150.55 223.134 150.983 223.646 151.281C224.157 151.575 224.751 151.722 225.428 151.722C225.869 151.722 226.266 151.66 226.621 151.537C226.981 151.409 227.291 151.22 227.552 150.969C227.812 150.713 228.013 150.396 228.156 150.017L229.775 150.472C229.604 151.021 229.318 151.504 228.915 151.92C228.513 152.332 228.016 152.654 227.424 152.886C226.832 153.114 226.167 153.227 225.428 153.227ZM237.069 153.227C236.018 153.227 235.111 152.995 234.349 152.531C233.591 152.062 233.006 151.409 232.594 150.571C232.187 149.728 231.984 148.748 231.984 147.631C231.984 146.513 232.187 145.528 232.594 144.676C233.006 143.819 233.579 143.152 234.313 142.673C235.052 142.19 235.914 141.949 236.898 141.949C237.467 141.949 238.028 142.044 238.582 142.233C239.136 142.422 239.64 142.73 240.094 143.156C240.549 143.578 240.911 144.136 241.181 144.832C241.451 145.528 241.586 146.385 241.586 147.403V148.114H233.177V146.665H239.881C239.881 146.049 239.758 145.5 239.512 145.017C239.271 144.534 238.925 144.153 238.475 143.874C238.03 143.594 237.504 143.455 236.898 143.455C236.231 143.455 235.653 143.62 235.165 143.952C234.683 144.278 234.311 144.705 234.05 145.23C233.79 145.756 233.66 146.319 233.66 146.92V147.886C233.66 148.71 233.802 149.409 234.086 149.982C234.375 150.55 234.775 150.983 235.286 151.281C235.798 151.575 236.392 151.722 237.069 151.722C237.509 151.722 237.907 151.66 238.262 151.537C238.622 151.409 238.932 151.22 239.192 150.969C239.453 150.713 239.654 150.396 239.796 150.017L241.415 150.472C241.245 151.021 240.959 151.504 240.556 151.92C240.154 152.332 239.656 152.654 239.065 152.886C238.473 153.114 237.808 153.227 237.069 153.227ZM245.812 146.438V153H244.136V142.091H245.755V143.795H245.897C246.153 143.241 246.541 142.796 247.062 142.46C247.583 142.119 248.255 141.949 249.079 141.949C249.817 141.949 250.464 142.1 251.018 142.403C251.572 142.702 252.003 143.156 252.31 143.767C252.618 144.373 252.772 145.14 252.772 146.068V153H251.096V146.182C251.096 145.325 250.873 144.657 250.428 144.179C249.983 143.696 249.372 143.455 248.596 143.455C248.061 143.455 247.583 143.571 247.161 143.803C246.745 144.035 246.415 144.373 246.174 144.818C245.933 145.263 245.812 145.803 245.812 146.438ZM259.954 153.227C259.045 153.227 258.243 152.998 257.547 152.538C256.85 152.074 256.306 151.421 255.913 150.578C255.52 149.731 255.324 148.729 255.324 147.574C255.324 146.428 255.52 145.434 255.913 144.591C256.306 143.748 256.853 143.097 257.554 142.638C258.254 142.179 259.064 141.949 259.983 141.949C260.693 141.949 261.254 142.067 261.666 142.304C262.083 142.536 262.4 142.801 262.618 143.099C262.84 143.393 263.013 143.634 263.136 143.824H263.278V138.455H264.954V153H263.335V151.324H263.136C263.013 151.523 262.838 151.774 262.61 152.077C262.383 152.375 262.059 152.643 261.637 152.879C261.216 153.111 260.655 153.227 259.954 153.227ZM260.181 151.722C260.854 151.722 261.422 151.546 261.886 151.196C262.35 150.841 262.703 150.351 262.944 149.726C263.186 149.096 263.306 148.369 263.306 147.545C263.306 146.731 263.188 146.018 262.951 145.408C262.715 144.792 262.364 144.314 261.9 143.973C261.436 143.627 260.863 143.455 260.181 143.455C259.471 143.455 258.879 143.637 258.406 144.001C257.937 144.361 257.584 144.851 257.348 145.472C257.116 146.087 257 146.778 257 147.545C257 148.322 257.118 149.027 257.355 149.662C257.596 150.292 257.951 150.794 258.42 151.168C258.894 151.537 259.481 151.722 260.181 151.722ZM268.257 153V142.091H269.933V153H268.257ZM269.109 140.273C268.782 140.273 268.501 140.161 268.264 139.939C268.032 139.716 267.916 139.449 267.916 139.136C267.916 138.824 268.032 138.556 268.264 138.334C268.501 138.111 268.782 138 269.109 138C269.436 138 269.715 138.111 269.947 138.334C270.184 138.556 270.302 138.824 270.302 139.136C270.302 139.449 270.184 139.716 269.947 139.939C269.715 140.161 269.436 140.273 269.109 140.273ZM273.003 153V142.091H274.622V143.795H274.764C274.991 143.213 275.358 142.761 275.865 142.439C276.372 142.112 276.98 141.949 277.69 141.949C278.41 141.949 279.009 142.112 279.487 142.439C279.97 142.761 280.347 143.213 280.616 143.795H280.73C281.009 143.232 281.429 142.785 281.987 142.453C282.546 142.117 283.216 141.949 283.997 141.949C284.973 141.949 285.77 142.254 286.391 142.865C287.011 143.471 287.321 144.416 287.321 145.699V153H285.645V145.699C285.645 144.894 285.425 144.319 284.984 143.973C284.544 143.627 284.026 143.455 283.429 143.455C282.662 143.455 282.068 143.687 281.646 144.151C281.225 144.61 281.014 145.192 281.014 145.898V153H279.31V145.528C279.31 144.908 279.108 144.409 278.706 144.03C278.304 143.646 277.785 143.455 277.151 143.455C276.715 143.455 276.308 143.571 275.929 143.803C275.555 144.035 275.252 144.357 275.02 144.768C274.793 145.176 274.679 145.647 274.679 146.182V153H273.003ZM294.96 153.227C293.908 153.227 293.002 152.995 292.239 152.531C291.482 152.062 290.897 151.409 290.485 150.571C290.078 149.728 289.874 148.748 289.874 147.631C289.874 146.513 290.078 145.528 290.485 144.676C290.897 143.819 291.47 143.152 292.204 142.673C292.942 142.19 293.804 141.949 294.789 141.949C295.357 141.949 295.918 142.044 296.472 142.233C297.026 142.422 297.531 142.73 297.985 143.156C298.44 143.578 298.802 144.136 299.072 144.832C299.342 145.528 299.477 146.385 299.477 147.403V148.114H291.067V146.665H297.772C297.772 146.049 297.649 145.5 297.403 145.017C297.161 144.534 296.816 144.153 296.366 143.874C295.921 143.594 295.395 143.455 294.789 143.455C294.121 143.455 293.544 143.62 293.056 143.952C292.573 144.278 292.201 144.705 291.941 145.23C291.681 145.756 291.55 146.319 291.55 146.92V147.886C291.55 148.71 291.692 149.409 291.977 149.982C292.265 150.55 292.665 150.983 293.177 151.281C293.688 151.575 294.282 151.722 294.96 151.722C295.4 151.722 295.798 151.66 296.153 151.537C296.513 151.409 296.823 151.22 297.083 150.969C297.344 150.713 297.545 150.396 297.687 150.017L299.306 150.472C299.136 151.021 298.849 151.504 298.447 151.92C298.044 152.332 297.547 152.654 296.955 152.886C296.363 153.114 295.698 153.227 294.96 153.227ZM303.702 146.438V153H302.026V142.091H303.646V143.795H303.788C304.043 143.241 304.432 142.796 304.952 142.46C305.473 142.119 306.146 141.949 306.969 141.949C307.708 141.949 308.354 142.1 308.908 142.403C309.462 142.702 309.893 143.156 310.201 143.767C310.509 144.373 310.663 145.14 310.663 146.068V153H308.987V146.182C308.987 145.325 308.764 144.657 308.319 144.179C307.874 143.696 307.263 143.455 306.487 143.455C305.951 143.455 305.473 143.571 305.052 143.803C304.635 144.035 304.306 144.373 304.065 144.818C303.823 145.263 303.702 145.803 303.702 146.438ZM318.47 142.091V143.511H312.816V142.091H318.47ZM314.464 139.477H316.14V149.875C316.14 150.348 316.209 150.704 316.346 150.94C316.488 151.172 316.668 151.329 316.886 151.409C317.109 151.485 317.343 151.523 317.589 151.523C317.774 151.523 317.925 151.513 318.044 151.494C318.162 151.471 318.257 151.452 318.328 151.438L318.669 152.943C318.555 152.986 318.396 153.028 318.193 153.071C317.989 153.118 317.731 153.142 317.419 153.142C316.945 153.142 316.481 153.04 316.027 152.837C315.577 152.633 315.203 152.323 314.904 151.906C314.611 151.49 314.464 150.964 314.464 150.33V139.477ZM325.306 153.227C324.321 153.227 323.457 152.993 322.713 152.524C321.975 152.055 321.397 151.4 320.98 150.557C320.569 149.714 320.363 148.729 320.363 147.602C320.363 146.466 320.569 145.474 320.98 144.626C321.397 143.779 321.975 143.121 322.713 142.652C323.457 142.183 324.321 141.949 325.306 141.949C326.291 141.949 327.152 142.183 327.891 142.652C328.634 143.121 329.212 143.779 329.624 144.626C330.041 145.474 330.249 146.466 330.249 147.602C330.249 148.729 330.041 149.714 329.624 150.557C329.212 151.4 328.634 152.055 327.891 152.524C327.152 152.993 326.291 153.227 325.306 153.227ZM325.306 151.722C326.054 151.722 326.669 151.53 327.152 151.146C327.635 150.763 327.993 150.259 328.225 149.634C328.457 149.009 328.573 148.331 328.573 147.602C328.573 146.873 328.457 146.194 328.225 145.564C327.993 144.934 327.635 144.425 327.152 144.037C326.669 143.649 326.054 143.455 325.306 143.455C324.558 143.455 323.942 143.649 323.459 144.037C322.976 144.425 322.619 144.934 322.387 145.564C322.155 146.194 322.039 146.873 322.039 147.602C322.039 148.331 322.155 149.009 322.387 149.634C322.619 150.259 322.976 150.763 323.459 151.146C323.942 151.53 324.558 151.722 325.306 151.722ZM340.535 144.534L339.029 144.96C338.934 144.709 338.795 144.465 338.61 144.229C338.43 143.987 338.184 143.788 337.871 143.632C337.559 143.476 337.159 143.398 336.671 143.398C336.004 143.398 335.447 143.552 335.002 143.859C334.562 144.162 334.342 144.548 334.342 145.017C334.342 145.434 334.493 145.763 334.796 146.004C335.099 146.246 335.573 146.447 336.217 146.608L337.836 147.006C338.811 147.242 339.538 147.605 340.016 148.092C340.495 148.575 340.734 149.198 340.734 149.96C340.734 150.585 340.554 151.144 340.194 151.636C339.839 152.129 339.342 152.517 338.702 152.801C338.063 153.085 337.32 153.227 336.472 153.227C335.36 153.227 334.439 152.986 333.71 152.503C332.98 152.02 332.519 151.314 332.325 150.386L333.915 149.989C334.067 150.576 334.353 151.016 334.775 151.31C335.201 151.603 335.757 151.75 336.444 151.75C337.225 151.75 337.845 151.584 338.305 151.253C338.769 150.917 339.001 150.514 339.001 150.045C339.001 149.667 338.868 149.349 338.603 149.094C338.338 148.833 337.931 148.639 337.381 148.511L335.563 148.085C334.564 147.848 333.83 147.482 333.362 146.984C332.897 146.482 332.665 145.855 332.665 145.102C332.665 144.487 332.838 143.942 333.184 143.469C333.534 142.995 334.01 142.624 334.612 142.354C335.218 142.084 335.904 141.949 336.671 141.949C337.751 141.949 338.598 142.186 339.214 142.659C339.834 143.133 340.274 143.758 340.535 144.534ZM353.314 153.227C352.291 153.227 351.41 152.986 350.672 152.503C349.933 152.02 349.365 151.355 348.967 150.507C348.569 149.66 348.37 148.691 348.37 147.602C348.37 146.494 348.574 145.517 348.981 144.669C349.393 143.817 349.966 143.152 350.7 142.673C351.439 142.19 352.3 141.949 353.285 141.949C354.052 141.949 354.743 142.091 355.359 142.375C355.975 142.659 356.479 143.057 356.872 143.568C357.265 144.08 357.509 144.676 357.603 145.358H355.927C355.799 144.861 355.515 144.42 355.075 144.037C354.639 143.649 354.052 143.455 353.314 143.455C352.66 143.455 352.087 143.625 351.595 143.966C351.107 144.302 350.726 144.778 350.451 145.393C350.181 146.004 350.047 146.722 350.047 147.545C350.047 148.388 350.179 149.122 350.444 149.747C350.714 150.372 351.093 150.857 351.581 151.203C352.073 151.549 352.651 151.722 353.314 151.722C353.749 151.722 354.145 151.646 354.5 151.494C354.855 151.343 355.155 151.125 355.402 150.841C355.648 150.557 355.823 150.216 355.927 149.818H357.603C357.509 150.462 357.274 151.042 356.9 151.558C356.531 152.07 356.041 152.477 355.43 152.78C354.824 153.078 354.118 153.227 353.314 153.227ZM364.485 153.227C363.501 153.227 362.636 152.993 361.893 152.524C361.154 152.055 360.577 151.4 360.16 150.557C359.748 149.714 359.542 148.729 359.542 147.602C359.542 146.466 359.748 145.474 360.16 144.626C360.577 143.779 361.154 143.121 361.893 142.652C362.636 142.183 363.501 141.949 364.485 141.949C365.47 141.949 366.332 142.183 367.071 142.652C367.814 143.121 368.392 143.779 368.804 144.626C369.22 145.474 369.429 146.466 369.429 147.602C369.429 148.729 369.22 149.714 368.804 150.557C368.392 151.4 367.814 152.055 367.071 152.524C366.332 152.993 365.47 153.227 364.485 153.227ZM364.485 151.722C365.234 151.722 365.849 151.53 366.332 151.146C366.815 150.763 367.172 150.259 367.404 149.634C367.636 149.009 367.752 148.331 367.752 147.602C367.752 146.873 367.636 146.194 367.404 145.564C367.172 144.934 366.815 144.425 366.332 144.037C365.849 143.649 365.234 143.455 364.485 143.455C363.737 143.455 363.122 143.649 362.639 144.037C362.156 144.425 361.798 144.934 361.566 145.564C361.334 146.194 361.218 146.873 361.218 147.602C361.218 148.331 361.334 149.009 361.566 149.634C361.798 150.259 362.156 150.763 362.639 151.146C363.122 151.53 363.737 151.722 364.485 151.722ZM373.663 146.438V153H371.987V142.091H373.607V143.795H373.749C374.004 143.241 374.393 142.796 374.913 142.46C375.434 142.119 376.107 141.949 376.93 141.949C377.669 141.949 378.315 142.1 378.869 142.403C379.423 142.702 379.854 143.156 380.162 143.767C380.47 144.373 380.624 145.14 380.624 146.068V153H378.947V146.182C378.947 145.325 378.725 144.657 378.28 144.179C377.835 143.696 377.224 143.455 376.447 143.455C375.912 143.455 375.434 143.571 375.013 143.803C374.596 144.035 374.267 144.373 374.026 144.818C373.784 145.263 373.663 145.803 373.663 146.438ZM391.414 144.534L389.908 144.96C389.813 144.709 389.674 144.465 389.489 144.229C389.309 143.987 389.063 143.788 388.75 143.632C388.438 143.476 388.038 143.398 387.55 143.398C386.882 143.398 386.326 143.552 385.881 143.859C385.441 144.162 385.221 144.548 385.221 145.017C385.221 145.434 385.372 145.763 385.675 146.004C385.978 146.246 386.452 146.447 387.096 146.608L388.715 147.006C389.69 147.242 390.417 147.605 390.895 148.092C391.373 148.575 391.613 149.198 391.613 149.96C391.613 150.585 391.433 151.144 391.073 151.636C390.718 152.129 390.221 152.517 389.581 152.801C388.942 153.085 388.199 153.227 387.351 153.227C386.239 153.227 385.318 152.986 384.588 152.503C383.859 152.02 383.398 151.314 383.203 150.386L384.794 149.989C384.946 150.576 385.232 151.016 385.654 151.31C386.08 151.603 386.636 151.75 387.323 151.75C388.104 151.75 388.724 151.584 389.184 151.253C389.648 150.917 389.88 150.514 389.88 150.045C389.88 149.667 389.747 149.349 389.482 149.094C389.217 148.833 388.81 148.639 388.26 148.511L386.442 148.085C385.443 147.848 384.709 147.482 384.24 146.984C383.776 146.482 383.544 145.855 383.544 145.102C383.544 144.487 383.717 143.942 384.063 143.469C384.413 142.995 384.889 142.624 385.49 142.354C386.096 142.084 386.783 141.949 387.55 141.949C388.63 141.949 389.477 142.186 390.093 142.659C390.713 143.133 391.153 143.758 391.414 144.534ZM398.88 142.091V143.511H393.227V142.091H398.88ZM394.874 139.477H396.55V149.875C396.55 150.348 396.619 150.704 396.756 150.94C396.898 151.172 397.078 151.329 397.296 151.409C397.519 151.485 397.753 151.523 397.999 151.523C398.184 151.523 398.335 151.513 398.454 151.494C398.572 151.471 398.667 151.452 398.738 151.438L399.079 152.943C398.965 152.986 398.807 153.028 398.603 153.071C398.399 153.118 398.141 153.142 397.829 153.142C397.355 153.142 396.891 153.04 396.437 152.837C395.987 152.633 395.613 152.323 395.315 151.906C395.021 151.49 394.874 150.964 394.874 150.33V139.477ZM401.401 153V142.091H403.021V143.739H403.134C403.333 143.199 403.693 142.761 404.214 142.425C404.735 142.089 405.322 141.92 405.975 141.92C406.098 141.92 406.252 141.923 406.437 141.928C406.621 141.932 406.761 141.939 406.856 141.949V143.653C406.799 143.639 406.669 143.618 406.465 143.589C406.266 143.556 406.056 143.54 405.833 143.54C405.303 143.54 404.829 143.651 404.413 143.874C404.001 144.091 403.674 144.394 403.433 144.783C403.196 145.166 403.077 145.604 403.077 146.097V153H401.401ZM415.718 148.54V142.091H417.394V153H415.718V151.153H415.604C415.348 151.707 414.951 152.179 414.411 152.567C413.871 152.95 413.189 153.142 412.365 153.142C411.684 153.142 411.078 152.993 410.547 152.695C410.017 152.392 409.6 151.937 409.297 151.331C408.994 150.72 408.843 149.951 408.843 149.023V142.091H410.519V148.909C410.519 149.705 410.741 150.339 411.186 150.812C411.636 151.286 412.209 151.523 412.905 151.523C413.322 151.523 413.746 151.416 414.176 151.203C414.612 150.99 414.977 150.663 415.27 150.223C415.569 149.783 415.718 149.222 415.718 148.54ZM420.464 153V142.091H422.14V153H420.464ZM420.549 140.614L422.282 137.318H424.242L422.026 140.614H420.549ZM429.329 153.227C428.42 153.227 427.618 152.998 426.922 152.538C426.225 152.074 425.681 151.421 425.288 150.578C424.895 149.731 424.699 148.729 424.699 147.574C424.699 146.428 424.895 145.434 425.288 144.591C425.681 143.748 426.228 143.097 426.929 142.638C427.629 142.179 428.439 141.949 429.358 141.949C430.068 141.949 430.629 142.067 431.041 142.304C431.458 142.536 431.775 142.801 431.993 143.099C432.215 143.393 432.388 143.634 432.511 143.824H432.653V138.455H434.329V153H432.71V151.324H432.511C432.388 151.523 432.213 151.774 431.985 152.077C431.758 152.375 431.434 152.643 431.012 152.879C430.591 153.111 430.03 153.227 429.329 153.227ZM429.556 151.722C430.229 151.722 430.797 151.546 431.261 151.196C431.725 150.841 432.078 150.351 432.319 149.726C432.561 149.096 432.681 148.369 432.681 147.545C432.681 146.731 432.563 146.018 432.326 145.408C432.09 144.792 431.739 144.314 431.275 143.973C430.811 143.627 430.238 143.455 429.556 143.455C428.846 143.455 428.254 143.637 427.781 144.001C427.312 144.361 426.959 144.851 426.723 145.472C426.491 146.087 426.375 146.778 426.375 147.545C426.375 148.322 426.493 149.027 426.73 149.662C426.971 150.292 427.326 150.794 427.795 151.168C428.269 151.537 428.856 151.722 429.556 151.722ZM442.064 153.227C441.079 153.227 440.215 152.993 439.471 152.524C438.733 152.055 438.155 151.4 437.738 150.557C437.326 149.714 437.12 148.729 437.12 147.602C437.12 146.466 437.326 145.474 437.738 144.626C438.155 143.779 438.733 143.121 439.471 142.652C440.215 142.183 441.079 141.949 442.064 141.949C443.048 141.949 443.91 142.183 444.649 142.652C445.392 143.121 445.97 143.779 446.382 144.626C446.798 145.474 447.007 146.466 447.007 147.602C447.007 148.729 446.798 149.714 446.382 150.557C445.97 151.4 445.392 152.055 444.649 152.524C443.91 152.993 443.048 153.227 442.064 153.227ZM442.064 151.722C442.812 151.722 443.427 151.53 443.91 151.146C444.393 150.763 444.751 150.259 444.983 149.634C445.215 149.009 445.331 148.331 445.331 147.602C445.331 146.873 445.215 146.194 444.983 145.564C444.751 144.934 444.393 144.425 443.91 144.037C443.427 143.649 442.812 143.455 442.064 143.455C441.315 143.455 440.7 143.649 440.217 144.037C439.734 144.425 439.377 144.934 439.145 145.564C438.913 146.194 438.797 146.873 438.797 147.602C438.797 148.331 438.913 149.009 439.145 149.634C439.377 150.259 439.734 150.763 440.217 151.146C440.7 151.53 441.315 151.722 442.064 151.722ZM457.293 144.534L455.787 144.96C455.692 144.709 455.553 144.465 455.368 144.229C455.188 143.987 454.942 143.788 454.629 143.632C454.317 143.476 453.917 143.398 453.429 143.398C452.761 143.398 452.205 143.552 451.76 143.859C451.32 144.162 451.099 144.548 451.099 145.017C451.099 145.434 451.251 145.763 451.554 146.004C451.857 146.246 452.33 146.447 452.974 146.608L454.594 147.006C455.569 147.242 456.296 147.605 456.774 148.092C457.252 148.575 457.491 149.198 457.491 149.96C457.491 150.585 457.312 151.144 456.952 151.636C456.597 152.129 456.099 152.517 455.46 152.801C454.821 153.085 454.078 153.227 453.23 153.227C452.117 153.227 451.196 152.986 450.467 152.503C449.738 152.02 449.277 151.314 449.082 150.386L450.673 149.989C450.825 150.576 451.111 151.016 451.533 151.31C451.959 151.603 452.515 151.75 453.202 151.75C453.983 151.75 454.603 151.584 455.062 151.253C455.527 150.917 455.759 150.514 455.759 150.045C455.759 149.667 455.626 149.349 455.361 149.094C455.096 148.833 454.688 148.639 454.139 148.511L452.321 148.085C451.322 147.848 450.588 147.482 450.119 146.984C449.655 146.482 449.423 145.855 449.423 145.102C449.423 144.487 449.596 143.942 449.942 143.469C450.292 142.995 450.768 142.624 451.369 142.354C451.975 142.084 452.662 141.949 453.429 141.949C454.509 141.949 455.356 142.186 455.972 142.659C456.592 143.133 457.032 143.758 457.293 144.534Z" fill="black"/>
<path d="M564.06 119.602V115.412L576.403 95.9091H579.898V101.875H577.767L569.457 115.043V115.27H586.688V119.602H564.06ZM577.938 125V118.324L577.994 116.449V95.9091H582.966V125H577.938ZM601.979 125.554C599.64 125.554 597.632 124.962 595.956 123.778C594.289 122.585 593.006 120.866 592.107 118.622C591.216 116.368 590.771 113.655 590.771 110.483C590.781 107.311 591.231 104.612 592.121 102.386C593.02 100.152 594.304 98.447 595.97 97.2727C597.646 96.0985 599.649 95.5114 601.979 95.5114C604.308 95.5114 606.311 96.0985 607.987 97.2727C609.663 98.447 610.946 100.152 611.837 102.386C612.736 104.621 613.186 107.32 613.186 110.483C613.186 113.665 612.736 116.383 611.837 118.636C610.946 120.881 609.663 122.595 607.987 123.778C606.321 124.962 604.318 125.554 601.979 125.554ZM601.979 121.108C603.797 121.108 605.232 120.213 606.283 118.423C607.343 116.624 607.874 113.977 607.874 110.483C607.874 108.172 607.632 106.231 607.149 104.659C606.666 103.087 605.984 101.903 605.104 101.108C604.223 100.303 603.181 99.9006 601.979 99.9006C600.17 99.9006 598.74 100.8 597.689 102.599C596.638 104.389 596.107 107.017 596.098 110.483C596.089 112.803 596.321 114.754 596.794 116.335C597.277 117.917 597.959 119.11 598.839 119.915C599.72 120.71 600.767 121.108 601.979 121.108ZM566.744 153.256C566.053 153.256 565.426 153.125 564.862 152.865C564.299 152.6 563.851 152.219 563.52 151.722C563.188 151.22 563.023 150.614 563.023 149.903C563.023 149.278 563.146 148.772 563.392 148.384C563.638 147.991 563.967 147.683 564.379 147.46C564.791 147.238 565.246 147.072 565.743 146.963C566.245 146.849 566.749 146.759 567.256 146.693C567.919 146.608 568.456 146.544 568.868 146.501C569.285 146.454 569.588 146.376 569.777 146.267C569.971 146.158 570.068 145.969 570.068 145.699V145.642C570.068 144.941 569.876 144.397 569.493 144.009C569.114 143.62 568.539 143.426 567.767 143.426C566.967 143.426 566.339 143.601 565.885 143.952C565.43 144.302 565.111 144.676 564.926 145.074L563.335 144.506C563.619 143.843 563.998 143.327 564.472 142.957C564.95 142.583 565.471 142.323 566.034 142.176C566.602 142.025 567.161 141.949 567.71 141.949C568.061 141.949 568.463 141.991 568.918 142.077C569.377 142.157 569.82 142.325 570.246 142.581C570.677 142.837 571.034 143.223 571.318 143.739C571.602 144.255 571.744 144.946 571.744 145.812V153H570.068V151.523H569.983C569.869 151.759 569.68 152.013 569.415 152.283C569.15 152.553 568.797 152.782 568.357 152.972C567.916 153.161 567.379 153.256 566.744 153.256ZM567 151.75C567.663 151.75 568.222 151.62 568.676 151.359C569.135 151.099 569.481 150.763 569.713 150.351C569.95 149.939 570.068 149.506 570.068 149.051V147.517C569.997 147.602 569.841 147.68 569.599 147.751C569.363 147.818 569.088 147.877 568.776 147.929C568.468 147.976 568.167 148.019 567.874 148.057C567.585 148.09 567.35 148.118 567.17 148.142C566.735 148.199 566.328 148.291 565.949 148.419C565.575 148.542 565.272 148.729 565.04 148.98C564.813 149.226 564.699 149.562 564.699 149.989C564.699 150.571 564.914 151.011 565.345 151.31C565.781 151.603 566.332 151.75 567 151.75ZM576.48 146.438V153H574.804V142.091H576.423V143.795H576.565C576.821 143.241 577.209 142.796 577.73 142.46C578.251 142.119 578.923 141.949 579.747 141.949C580.485 141.949 581.132 142.1 581.686 142.403C582.24 142.702 582.671 143.156 582.978 143.767C583.286 144.373 583.44 145.14 583.44 146.068V153H581.764V146.182C581.764 145.325 581.541 144.657 581.096 144.179C580.651 143.696 580.04 143.455 579.264 143.455C578.729 143.455 578.251 143.571 577.829 143.803C577.413 144.035 577.083 144.373 576.842 144.818C576.6 145.263 576.48 145.803 576.48 146.438ZM590.935 153.227C589.95 153.227 589.086 152.993 588.342 152.524C587.604 152.055 587.026 151.4 586.609 150.557C586.197 149.714 585.991 148.729 585.991 147.602C585.991 146.466 586.197 145.474 586.609 144.626C587.026 143.779 587.604 143.121 588.342 142.652C589.086 142.183 589.95 141.949 590.935 141.949C591.92 141.949 592.781 142.183 593.52 142.652C594.263 143.121 594.841 143.779 595.253 144.626C595.67 145.474 595.878 146.466 595.878 147.602C595.878 148.729 595.67 149.714 595.253 150.557C594.841 151.4 594.263 152.055 593.52 152.524C592.781 152.993 591.92 153.227 590.935 153.227ZM590.935 151.722C591.683 151.722 592.298 151.53 592.781 151.146C593.264 150.763 593.622 150.259 593.854 149.634C594.086 149.009 594.202 148.331 594.202 147.602C594.202 146.873 594.086 146.194 593.854 145.564C593.622 144.934 593.264 144.425 592.781 144.037C592.298 143.649 591.683 143.455 590.935 143.455C590.187 143.455 589.571 143.649 589.088 144.037C588.605 144.425 588.248 144.934 588.016 145.564C587.784 146.194 587.668 146.873 587.668 147.602C587.668 148.331 587.784 149.009 588.016 149.634C588.248 150.259 588.605 150.763 589.088 151.146C589.571 151.53 590.187 151.722 590.935 151.722ZM606.164 144.534L604.658 144.96C604.563 144.709 604.424 144.465 604.239 144.229C604.059 143.987 603.813 143.788 603.5 143.632C603.188 143.476 602.788 143.398 602.3 143.398C601.632 143.398 601.076 143.552 600.631 143.859C600.191 144.162 599.971 144.548 599.971 145.017C599.971 145.434 600.122 145.763 600.425 146.004C600.728 146.246 601.202 146.447 601.846 146.608L603.465 147.006C604.44 147.242 605.167 147.605 605.645 148.092C606.123 148.575 606.363 149.198 606.363 149.96C606.363 150.585 606.183 151.144 605.823 151.636C605.468 152.129 604.971 152.517 604.331 152.801C603.692 153.085 602.949 153.227 602.101 153.227C600.989 153.227 600.068 152.986 599.338 152.503C598.609 152.02 598.148 151.314 597.953 150.386L599.544 149.989C599.696 150.576 599.982 151.016 600.404 151.31C600.83 151.603 601.386 151.75 602.073 151.75C602.854 151.75 603.474 151.584 603.934 151.253C604.398 150.917 604.63 150.514 604.63 150.045C604.63 149.667 604.497 149.349 604.232 149.094C603.967 148.833 603.56 148.639 603.01 148.511L601.192 148.085C600.193 147.848 599.459 147.482 598.99 146.984C598.526 146.482 598.294 145.855 598.294 145.102C598.294 144.487 598.467 143.942 598.813 143.469C599.163 142.995 599.639 142.624 600.24 142.354C600.846 142.084 601.533 141.949 602.3 141.949C603.38 141.949 604.227 142.186 604.843 142.659C605.463 143.133 605.903 143.758 606.164 144.534ZM618.63 153.227C617.721 153.227 616.918 152.998 616.222 152.538C615.526 152.074 614.982 151.421 614.589 150.578C614.196 149.731 613.999 148.729 613.999 147.574C613.999 146.428 614.196 145.434 614.589 144.591C614.982 143.748 615.529 143.097 616.229 142.638C616.93 142.179 617.74 141.949 618.658 141.949C619.369 141.949 619.93 142.067 620.342 142.304C620.758 142.536 621.076 142.801 621.293 143.099C621.516 143.393 621.689 143.634 621.812 143.824H621.954V138.455H623.63V153H622.011V151.324H621.812C621.689 151.523 621.513 151.774 621.286 152.077C621.059 152.375 620.735 152.643 620.313 152.879C619.892 153.111 619.331 153.227 618.63 153.227ZM618.857 151.722C619.53 151.722 620.098 151.546 620.562 151.196C621.026 150.841 621.379 150.351 621.62 149.726C621.862 149.096 621.982 148.369 621.982 147.545C621.982 146.731 621.864 146.018 621.627 145.408C621.39 144.792 621.04 144.314 620.576 143.973C620.112 143.627 619.539 143.455 618.857 143.455C618.147 143.455 617.555 143.637 617.082 144.001C616.613 144.361 616.26 144.851 616.023 145.472C615.791 146.087 615.675 146.778 615.675 147.545C615.675 148.322 615.794 149.027 616.031 149.662C616.272 150.292 616.627 150.794 617.096 151.168C617.569 151.537 618.156 151.722 618.857 151.722ZM631.506 153.227C630.455 153.227 629.549 152.995 628.786 152.531C628.029 152.062 627.444 151.409 627.032 150.571C626.625 149.728 626.421 148.748 626.421 147.631C626.421 146.513 626.625 145.528 627.032 144.676C627.444 143.819 628.017 143.152 628.751 142.673C629.489 142.19 630.351 141.949 631.336 141.949C631.904 141.949 632.465 142.044 633.019 142.233C633.573 142.422 634.077 142.73 634.532 143.156C634.987 143.578 635.349 144.136 635.619 144.832C635.888 145.528 636.023 146.385 636.023 147.403V148.114H627.614V146.665H634.319C634.319 146.049 634.196 145.5 633.95 145.017C633.708 144.534 633.362 144.153 632.913 143.874C632.468 143.594 631.942 143.455 631.336 143.455C630.668 143.455 630.091 143.62 629.603 143.952C629.12 144.278 628.748 144.705 628.488 145.23C628.228 145.756 628.097 146.319 628.097 146.92V147.886C628.097 148.71 628.239 149.409 628.523 149.982C628.812 150.55 629.212 150.983 629.724 151.281C630.235 151.575 630.829 151.722 631.506 151.722C631.947 151.722 632.344 151.66 632.7 151.537C633.059 151.409 633.37 151.22 633.63 150.969C633.89 150.713 634.092 150.396 634.234 150.017L635.853 150.472C635.683 151.021 635.396 151.504 634.994 151.92C634.591 152.332 634.094 152.654 633.502 152.886C632.91 153.114 632.245 153.227 631.506 153.227ZM644.198 153V142.091H645.817V143.795H645.96C646.187 143.213 646.554 142.761 647.06 142.439C647.567 142.112 648.175 141.949 648.886 141.949C649.605 141.949 650.204 142.112 650.683 142.439C651.165 142.761 651.542 143.213 651.812 143.795H651.925C652.205 143.232 652.624 142.785 653.183 142.453C653.741 142.117 654.411 141.949 655.192 141.949C656.168 141.949 656.966 142.254 657.586 142.865C658.206 143.471 658.516 144.416 658.516 145.699V153H656.84V145.699C656.84 144.894 656.62 144.319 656.18 143.973C655.739 143.627 655.221 143.455 654.624 143.455C653.857 143.455 653.263 143.687 652.842 144.151C652.42 144.61 652.21 145.192 652.21 145.898V153H650.505V145.528C650.505 144.908 650.304 144.409 649.901 144.03C649.499 143.646 648.98 143.455 648.346 143.455C647.91 143.455 647.503 143.571 647.124 143.803C646.75 144.035 646.447 144.357 646.215 144.768C645.988 145.176 645.874 145.647 645.874 146.182V153H644.198ZM666.155 153.227C665.104 153.227 664.197 152.995 663.435 152.531C662.677 152.062 662.092 151.409 661.68 150.571C661.273 149.728 661.07 148.748 661.07 147.631C661.07 146.513 661.273 145.528 661.68 144.676C662.092 143.819 662.665 143.152 663.399 142.673C664.138 142.19 665 141.949 665.984 141.949C666.553 141.949 667.114 142.044 667.668 142.233C668.222 142.422 668.726 142.73 669.18 143.156C669.635 143.578 669.997 144.136 670.267 144.832C670.537 145.528 670.672 146.385 670.672 147.403V148.114H662.263V146.665H668.967C668.967 146.049 668.844 145.5 668.598 145.017C668.357 144.534 668.011 144.153 667.561 143.874C667.116 143.594 666.59 143.455 665.984 143.455C665.317 143.455 664.739 143.62 664.251 143.952C663.768 144.278 663.397 144.705 663.136 145.23C662.876 145.756 662.746 146.319 662.746 146.92V147.886C662.746 148.71 662.888 149.409 663.172 149.982C663.461 150.55 663.861 150.983 664.372 151.281C664.884 151.575 665.478 151.722 666.155 151.722C666.595 151.722 666.993 151.66 667.348 151.537C667.708 151.409 668.018 151.22 668.278 150.969C668.539 150.713 668.74 150.396 668.882 150.017L670.501 150.472C670.331 151.021 670.045 151.504 669.642 151.92C669.24 152.332 668.742 152.654 668.151 152.886C667.559 153.114 666.893 153.227 666.155 153.227ZM673.222 153V142.091H674.841V143.739H674.955C675.153 143.199 675.513 142.761 676.034 142.425C676.555 142.089 677.142 141.92 677.795 141.92C677.919 141.92 678.072 141.923 678.257 141.928C678.442 141.932 678.581 141.939 678.676 141.949V143.653C678.619 143.639 678.489 143.618 678.286 143.589C678.087 143.556 677.876 143.54 677.653 143.54C677.123 143.54 676.65 143.651 676.233 143.874C675.821 144.091 675.494 144.394 675.253 144.783C675.016 145.166 674.898 145.604 674.898 146.097V153H673.222ZM684.763 153.227C683.74 153.227 682.859 152.986 682.121 152.503C681.382 152.02 680.814 151.355 680.416 150.507C680.018 149.66 679.82 148.691 679.82 147.602C679.82 146.494 680.023 145.517 680.43 144.669C680.842 143.817 681.415 143.152 682.149 142.673C682.888 142.19 683.75 141.949 684.734 141.949C685.501 141.949 686.193 142.091 686.808 142.375C687.424 142.659 687.928 143.057 688.321 143.568C688.714 144.08 688.958 144.676 689.053 145.358H687.376C687.249 144.861 686.964 144.42 686.524 144.037C686.089 143.649 685.501 143.455 684.763 143.455C684.109 143.455 683.536 143.625 683.044 143.966C682.556 144.302 682.175 144.778 681.901 145.393C681.631 146.004 681.496 146.722 681.496 147.545C681.496 148.388 681.628 149.122 681.893 149.747C682.163 150.372 682.542 150.857 683.03 151.203C683.522 151.549 684.1 151.722 684.763 151.722C685.198 151.722 685.594 151.646 685.949 151.494C686.304 151.343 686.605 151.125 686.851 150.841C687.097 150.557 687.272 150.216 687.376 149.818H689.053C688.958 150.462 688.723 151.042 688.349 151.558C687.98 152.07 687.49 152.477 686.879 152.78C686.273 153.078 685.568 153.227 684.763 153.227ZM694.713 153.256C694.022 153.256 693.394 153.125 692.831 152.865C692.268 152.6 691.82 152.219 691.489 151.722C691.157 151.22 690.991 150.614 690.991 149.903C690.991 149.278 691.115 148.772 691.361 148.384C691.607 147.991 691.936 147.683 692.348 147.46C692.76 147.238 693.214 147.072 693.712 146.963C694.214 146.849 694.718 146.759 695.224 146.693C695.887 146.608 696.425 146.544 696.837 146.501C697.253 146.454 697.556 146.376 697.746 146.267C697.94 146.158 698.037 145.969 698.037 145.699V145.642C698.037 144.941 697.845 144.397 697.462 144.009C697.083 143.62 696.508 143.426 695.736 143.426C694.936 143.426 694.308 143.601 693.854 143.952C693.399 144.302 693.08 144.676 692.895 145.074L691.304 144.506C691.588 143.843 691.967 143.327 692.44 142.957C692.919 142.583 693.439 142.323 694.003 142.176C694.571 142.025 695.13 141.949 695.679 141.949C696.029 141.949 696.432 141.991 696.886 142.077C697.346 142.157 697.788 142.325 698.214 142.581C698.645 142.837 699.003 143.223 699.287 143.739C699.571 144.255 699.713 144.946 699.713 145.812V153H698.037V151.523H697.952C697.838 151.759 697.649 152.013 697.384 152.283C697.118 152.553 696.766 152.782 696.325 152.972C695.885 153.161 695.348 153.256 694.713 153.256ZM694.969 151.75C695.632 151.75 696.19 151.62 696.645 151.359C697.104 151.099 697.45 150.763 697.682 150.351C697.919 149.939 698.037 149.506 698.037 149.051V147.517C697.966 147.602 697.81 147.68 697.568 147.751C697.331 147.818 697.057 147.877 696.744 147.929C696.437 147.976 696.136 148.019 695.842 148.057C695.554 148.09 695.319 148.118 695.139 148.142C694.704 148.199 694.296 148.291 693.918 148.419C693.544 148.542 693.241 148.729 693.009 148.98C692.781 149.226 692.668 149.562 692.668 149.989C692.668 150.571 692.883 151.011 693.314 151.31C693.75 151.603 694.301 151.75 694.969 151.75ZM706.892 153.227C705.983 153.227 705.18 152.998 704.484 152.538C703.788 152.074 703.243 151.421 702.85 150.578C702.458 149.731 702.261 148.729 702.261 147.574C702.261 146.428 702.458 145.434 702.85 144.591C703.243 143.748 703.79 143.097 704.491 142.638C705.192 142.179 706.002 141.949 706.92 141.949C707.63 141.949 708.191 142.067 708.603 142.304C709.02 142.536 709.337 142.801 709.555 143.099C709.778 143.393 709.95 143.634 710.074 143.824H710.216V138.455H711.892V153H710.272V151.324H710.074C709.95 151.523 709.775 151.774 709.548 152.077C709.321 152.375 708.996 152.643 708.575 152.879C708.154 153.111 707.592 153.227 706.892 153.227ZM707.119 151.722C707.791 151.722 708.359 151.546 708.824 151.196C709.288 150.841 709.64 150.351 709.882 149.726C710.123 149.096 710.244 148.369 710.244 147.545C710.244 146.731 710.126 146.018 709.889 145.408C709.652 144.792 709.302 144.314 708.838 143.973C708.374 143.627 707.801 143.455 707.119 143.455C706.409 143.455 705.817 143.637 705.343 144.001C704.875 144.361 704.522 144.851 704.285 145.472C704.053 146.087 703.937 146.778 703.937 147.545C703.937 148.322 704.056 149.027 704.292 149.662C704.534 150.292 704.889 150.794 705.358 151.168C705.831 151.537 706.418 151.722 707.119 151.722ZM719.626 153.227C718.641 153.227 717.777 152.993 717.034 152.524C716.295 152.055 715.717 151.4 715.301 150.557C714.889 149.714 714.683 148.729 714.683 147.602C714.683 146.466 714.889 145.474 715.301 144.626C715.717 143.779 716.295 143.121 717.034 142.652C717.777 142.183 718.641 141.949 719.626 141.949C720.611 141.949 721.473 142.183 722.211 142.652C722.955 143.121 723.532 143.779 723.944 144.626C724.361 145.474 724.569 146.466 724.569 147.602C724.569 148.729 724.361 149.714 723.944 150.557C723.532 151.4 722.955 152.055 722.211 152.524C721.473 152.993 720.611 153.227 719.626 153.227ZM719.626 151.722C720.374 151.722 720.99 151.53 721.473 151.146C721.956 150.763 722.313 150.259 722.545 149.634C722.777 149.009 722.893 148.331 722.893 147.602C722.893 146.873 722.777 146.194 722.545 145.564C722.313 144.934 721.956 144.425 721.473 144.037C720.99 143.649 720.374 143.455 719.626 143.455C718.878 143.455 718.262 143.649 717.779 144.037C717.297 144.425 716.939 144.934 716.707 145.564C716.475 146.194 716.359 146.873 716.359 147.602C716.359 148.331 716.475 149.009 716.707 149.634C716.939 150.259 717.297 150.763 717.779 151.146C718.262 151.53 718.878 151.722 719.626 151.722ZM737.327 153.227C736.276 153.227 735.369 152.995 734.607 152.531C733.849 152.062 733.264 151.409 732.852 150.571C732.445 149.728 732.241 148.748 732.241 147.631C732.241 146.513 732.445 145.528 732.852 144.676C733.264 143.819 733.837 143.152 734.571 142.673C735.31 142.19 736.171 141.949 737.156 141.949C737.724 141.949 738.286 142.044 738.839 142.233C739.393 142.422 739.898 142.73 740.352 143.156C740.807 143.578 741.169 144.136 741.439 144.832C741.709 145.528 741.844 146.385 741.844 147.403V148.114H733.435V146.665H740.139C740.139 146.049 740.016 145.5 739.77 145.017C739.528 144.534 739.183 144.153 738.733 143.874C738.288 143.594 737.762 143.455 737.156 143.455C736.489 143.455 735.911 143.62 735.423 143.952C734.94 144.278 734.569 144.705 734.308 145.23C734.048 145.756 733.918 146.319 733.918 146.92V147.886C733.918 148.71 734.06 149.409 734.344 149.982C734.633 150.55 735.033 150.983 735.544 151.281C736.055 151.575 736.65 151.722 737.327 151.722C737.767 151.722 738.165 151.66 738.52 151.537C738.88 151.409 739.19 151.22 739.45 150.969C739.711 150.713 739.912 150.396 740.054 150.017L741.673 150.472C741.503 151.021 741.216 151.504 740.814 151.92C740.411 152.332 739.914 152.654 739.322 152.886C738.731 153.114 738.065 153.227 737.327 153.227ZM754.592 153.227C753.541 153.227 752.634 152.995 751.872 152.531C751.115 152.062 750.53 151.409 750.118 150.571C749.711 149.728 749.507 148.748 749.507 147.631C749.507 146.513 749.711 145.528 750.118 144.676C750.53 143.819 751.103 143.152 751.837 142.673C752.575 142.19 753.437 141.949 754.422 141.949C754.99 141.949 755.551 142.044 756.105 142.233C756.659 142.422 757.163 142.73 757.618 143.156C758.072 143.578 758.435 144.136 758.705 144.832C758.974 145.528 759.109 146.385 759.109 147.403V148.114H750.7V146.665H757.405C757.405 146.049 757.282 145.5 757.036 145.017C756.794 144.534 756.448 144.153 755.999 143.874C755.554 143.594 755.028 143.455 754.422 143.455C753.754 143.455 753.177 143.62 752.689 143.952C752.206 144.278 751.834 144.705 751.574 145.23C751.313 145.756 751.183 146.319 751.183 146.92V147.886C751.183 148.71 751.325 149.409 751.609 149.982C751.898 150.55 752.298 150.983 752.81 151.281C753.321 151.575 753.915 151.722 754.592 151.722C755.033 151.722 755.43 151.66 755.786 151.537C756.145 151.409 756.455 151.22 756.716 150.969C756.976 150.713 757.178 150.396 757.32 150.017L758.939 150.472C758.768 151.021 758.482 151.504 758.08 151.92C757.677 152.332 757.18 152.654 756.588 152.886C755.996 153.114 755.331 153.227 754.592 153.227ZM762.616 142.091L765.23 146.551L767.843 142.091H769.775L766.252 147.545L769.775 153H767.843L765.23 148.767L762.616 153H760.684L764.15 147.545L760.684 142.091H762.616ZM772.167 157.091V142.091H773.786V143.824H773.985C774.108 143.634 774.279 143.393 774.496 143.099C774.719 142.801 775.036 142.536 775.448 142.304C775.865 142.067 776.428 141.949 777.138 141.949C778.057 141.949 778.867 142.179 779.567 142.638C780.268 143.097 780.815 143.748 781.208 144.591C781.601 145.434 781.798 146.428 781.798 147.574C781.798 148.729 781.601 149.731 781.208 150.578C780.815 151.421 780.271 152.074 779.575 152.538C778.879 152.998 778.076 153.227 777.167 153.227C776.466 153.227 775.905 153.111 775.484 152.879C775.062 152.643 774.738 152.375 774.511 152.077C774.283 151.774 774.108 151.523 773.985 151.324H773.843V157.091H772.167ZM773.815 147.545C773.815 148.369 773.935 149.096 774.177 149.726C774.418 150.351 774.771 150.841 775.235 151.196C775.699 151.546 776.267 151.722 776.94 151.722C777.64 151.722 778.225 151.537 778.694 151.168C779.167 150.794 779.522 150.292 779.759 149.662C780.001 149.027 780.121 148.322 780.121 147.545C780.121 146.778 780.003 146.087 779.766 145.472C779.534 144.851 779.182 144.361 778.708 144.001C778.239 143.637 777.65 143.455 776.94 143.455C776.258 143.455 775.685 143.627 775.221 143.973C774.757 144.314 774.406 144.792 774.17 145.408C773.933 146.018 773.815 146.731 773.815 147.545ZM788.928 153.227C787.877 153.227 786.97 152.995 786.208 152.531C785.451 152.062 784.866 151.409 784.454 150.571C784.047 149.728 783.843 148.748 783.843 147.631C783.843 146.513 784.047 145.528 784.454 144.676C784.866 143.819 785.439 143.152 786.173 142.673C786.911 142.19 787.773 141.949 788.758 141.949C789.326 141.949 789.887 142.044 790.441 142.233C790.995 142.422 791.499 142.73 791.954 143.156C792.408 143.578 792.771 144.136 793.04 144.832C793.31 145.528 793.445 146.385 793.445 147.403V148.114H785.036V146.665H791.741C791.741 146.049 791.618 145.5 791.371 145.017C791.13 144.534 790.784 144.153 790.335 143.874C789.889 143.594 789.364 143.455 788.758 143.455C788.09 143.455 787.513 143.62 787.025 143.952C786.542 144.278 786.17 144.705 785.91 145.23C785.649 145.756 785.519 146.319 785.519 146.92V147.886C785.519 148.71 785.661 149.409 785.945 149.982C786.234 150.55 786.634 150.983 787.146 151.281C787.657 151.575 788.251 151.722 788.928 151.722C789.369 151.722 789.766 151.66 790.121 151.537C790.481 151.409 790.791 151.22 791.052 150.969C791.312 150.713 791.513 150.396 791.656 150.017L793.275 150.472C793.104 151.021 792.818 151.504 792.415 151.92C792.013 152.332 791.516 152.654 790.924 152.886C790.332 153.114 789.667 153.227 788.928 153.227ZM795.995 153V142.091H797.614V143.739H797.728C797.927 143.199 798.287 142.761 798.808 142.425C799.328 142.089 799.915 141.92 800.569 141.92C800.692 141.92 800.846 141.923 801.031 141.928C801.215 141.932 801.355 141.939 801.45 141.949V143.653C801.393 143.639 801.263 143.618 801.059 143.589C800.86 143.556 800.649 143.54 800.427 143.54C799.897 143.54 799.423 143.651 799.006 143.874C798.594 144.091 798.268 144.394 798.026 144.783C797.79 145.166 797.671 145.604 797.671 146.097V153H795.995ZM803.436 153V142.091H805.113V153H803.436ZM804.289 140.273C803.962 140.273 803.68 140.161 803.444 139.939C803.212 139.716 803.096 139.449 803.096 139.136C803.096 138.824 803.212 138.556 803.444 138.334C803.68 138.111 803.962 138 804.289 138C804.615 138 804.895 138.111 805.127 138.334C805.364 138.556 805.482 138.824 805.482 139.136C805.482 139.449 805.364 139.716 805.127 139.939C804.895 140.161 804.615 140.273 804.289 140.273ZM812.756 153.227C811.705 153.227 810.799 152.995 810.036 152.531C809.279 152.062 808.694 151.409 808.282 150.571C807.875 149.728 807.671 148.748 807.671 147.631C807.671 146.513 807.875 145.528 808.282 144.676C808.694 143.819 809.267 143.152 810.001 142.673C810.739 142.19 811.601 141.949 812.586 141.949C813.154 141.949 813.715 142.044 814.269 142.233C814.823 142.422 815.327 142.73 815.782 143.156C816.237 143.578 816.599 144.136 816.869 144.832C817.138 145.528 817.273 146.385 817.273 147.403V148.114H808.864V146.665H815.569C815.569 146.049 815.446 145.5 815.2 145.017C814.958 144.534 814.612 144.153 814.163 143.874C813.718 143.594 813.192 143.455 812.586 143.455C811.918 143.455 811.341 143.62 810.853 143.952C810.37 144.278 809.998 144.705 809.738 145.23C809.478 145.756 809.347 146.319 809.347 146.92V147.886C809.347 148.71 809.489 149.409 809.773 149.982C810.062 150.55 810.462 150.983 810.974 151.281C811.485 151.575 812.079 151.722 812.756 151.722C813.197 151.722 813.594 151.66 813.95 151.537C814.309 151.409 814.62 151.22 814.88 150.969C815.14 150.713 815.342 150.396 815.484 150.017L817.103 150.472C816.933 151.021 816.646 151.504 816.244 151.92C815.841 152.332 815.344 152.654 814.752 152.886C814.16 153.114 813.495 153.227 812.756 153.227ZM813.978 140.784L812.501 138.795L811.023 140.784H809.433V140.67L811.734 137.716H813.268L815.569 140.67V140.784H813.978ZM821.499 146.438V153H819.823V142.091H821.442V143.795H821.585C821.84 143.241 822.228 142.796 822.749 142.46C823.27 142.119 823.942 141.949 824.766 141.949C825.505 141.949 826.151 142.1 826.705 142.403C827.259 142.702 827.69 143.156 827.998 143.767C828.306 144.373 828.46 145.14 828.46 146.068V153H826.783V146.182C826.783 145.325 826.561 144.657 826.116 144.179C825.671 143.696 825.06 143.455 824.283 143.455C823.748 143.455 823.27 143.571 822.849 143.803C822.432 144.035 822.103 144.373 821.862 144.818C821.62 145.263 821.499 145.803 821.499 146.438ZM835.954 153.227C834.931 153.227 834.051 152.986 833.312 152.503C832.574 152.02 832.005 151.355 831.608 150.507C831.21 149.66 831.011 148.691 831.011 147.602C831.011 146.494 831.215 145.517 831.622 144.669C832.034 143.817 832.607 143.152 833.341 142.673C834.079 142.19 834.941 141.949 835.926 141.949C836.693 141.949 837.384 142.091 838 142.375C838.615 142.659 839.119 143.057 839.512 143.568C839.905 144.08 840.149 144.676 840.244 145.358H838.568C838.44 144.861 838.156 144.42 837.716 144.037C837.28 143.649 836.693 143.455 835.954 143.455C835.301 143.455 834.728 143.625 834.235 143.966C833.748 144.302 833.367 144.778 833.092 145.393C832.822 146.004 832.687 146.722 832.687 147.545C832.687 148.388 832.82 149.122 833.085 149.747C833.355 150.372 833.734 150.857 834.221 151.203C834.714 151.549 835.291 151.722 835.954 151.722C836.39 151.722 836.785 151.646 837.14 151.494C837.495 151.343 837.796 151.125 838.042 150.841C838.288 150.557 838.464 150.216 838.568 149.818H840.244C840.149 150.462 839.915 151.042 839.541 151.558C839.172 152.07 838.681 152.477 838.071 152.78C837.465 153.078 836.759 153.227 835.954 153.227ZM842.694 153V142.091H844.37V153H842.694ZM843.547 140.273C843.22 140.273 842.938 140.161 842.701 139.939C842.469 139.716 842.353 139.449 842.353 139.136C842.353 138.824 842.469 138.556 842.701 138.334C842.938 138.111 843.22 138 843.547 138C843.873 138 844.153 138.111 844.385 138.334C844.621 138.556 844.74 138.824 844.74 139.136C844.74 139.449 844.621 139.716 844.385 139.939C844.153 140.161 843.873 140.273 843.547 140.273ZM850.651 153.256C849.959 153.256 849.332 153.125 848.768 152.865C848.205 152.6 847.758 152.219 847.426 151.722C847.095 151.22 846.929 150.614 846.929 149.903C846.929 149.278 847.052 148.772 847.298 148.384C847.545 147.991 847.874 147.683 848.286 147.46C848.697 147.238 849.152 147.072 849.649 146.963C850.151 146.849 850.655 146.759 851.162 146.693C851.825 146.608 852.362 146.544 852.774 146.501C853.191 146.454 853.494 146.376 853.683 146.267C853.877 146.158 853.974 145.969 853.974 145.699V145.642C853.974 144.941 853.783 144.397 853.399 144.009C853.02 143.62 852.445 143.426 851.673 143.426C850.873 143.426 850.246 143.601 849.791 143.952C849.337 144.302 849.017 144.676 848.832 145.074L847.241 144.506C847.526 143.843 847.904 143.327 848.378 142.957C848.856 142.583 849.377 142.323 849.94 142.176C850.509 142.025 851.067 141.949 851.616 141.949C851.967 141.949 852.369 141.991 852.824 142.077C853.283 142.157 853.726 142.325 854.152 142.581C854.583 142.837 854.94 143.223 855.224 143.739C855.509 144.255 855.651 144.946 855.651 145.812V153H853.974V151.523H853.889C853.776 151.759 853.586 152.013 853.321 152.283C853.056 152.553 852.703 152.782 852.263 152.972C851.822 153.161 851.285 153.256 850.651 153.256ZM850.906 151.75C851.569 151.75 852.128 151.62 852.582 151.359C853.042 151.099 853.387 150.763 853.619 150.351C853.856 149.939 853.974 149.506 853.974 149.051V147.517C853.903 147.602 853.747 147.68 853.506 147.751C853.269 147.818 852.994 147.877 852.682 147.929C852.374 147.976 852.073 148.019 851.78 148.057C851.491 148.09 851.257 148.118 851.077 148.142C850.641 148.199 850.234 148.291 849.855 148.419C849.481 148.542 849.178 148.729 848.946 148.98C848.719 149.226 848.605 149.562 848.605 149.989C848.605 150.571 848.821 151.011 849.251 151.31C849.687 151.603 850.239 151.75 850.906 151.75Z" fill="black"/>
<path d="M1017.59 125V121.193L1027.68 111.293C1028.65 110.317 1029.46 109.451 1030.1 108.693C1030.74 107.936 1031.23 107.202 1031.55 106.491C1031.87 105.781 1032.03 105.024 1032.03 104.219C1032.03 103.3 1031.82 102.514 1031.41 101.861C1030.99 101.198 1030.42 100.687 1029.69 100.327C1028.96 99.9669 1028.13 99.7869 1027.2 99.7869C1026.25 99.7869 1025.41 99.9858 1024.69 100.384C1023.97 100.772 1023.41 101.326 1023.01 102.045C1022.62 102.765 1022.43 103.622 1022.43 104.616H1017.41C1017.41 102.77 1017.84 101.165 1018.68 99.8011C1019.52 98.4375 1020.68 97.3816 1022.16 96.6335C1023.65 95.8854 1025.35 95.5114 1027.27 95.5114C1029.22 95.5114 1030.94 95.8759 1032.41 96.6051C1033.89 97.3343 1035.04 98.3333 1035.85 99.6023C1036.68 100.871 1037.09 102.32 1037.09 103.949C1037.09 105.038 1036.88 106.108 1036.46 107.159C1036.05 108.21 1035.31 109.375 1034.26 110.653C1033.22 111.932 1031.76 113.48 1029.87 115.298L1024.86 120.398V120.597H1037.53V125H1017.59ZM1048.52 121.023L1048.34 122.585C1048.21 123.778 1047.97 124.991 1047.63 126.222C1047.3 127.462 1046.95 128.603 1046.58 129.645C1046.21 130.687 1045.91 131.506 1045.68 132.102H1042.22C1042.35 131.525 1042.53 130.739 1042.76 129.744C1042.99 128.75 1043.22 127.633 1043.44 126.392C1043.66 125.152 1043.8 123.892 1043.88 122.614L1043.98 121.023H1048.52ZM1063.85 125.554C1061.51 125.554 1059.5 124.962 1057.82 123.778C1056.16 122.585 1054.87 120.866 1053.97 118.622C1053.08 116.368 1052.64 113.655 1052.64 110.483C1052.65 107.311 1053.1 104.612 1053.99 102.386C1054.89 100.152 1056.17 98.447 1057.84 97.2727C1059.51 96.0985 1061.52 95.5114 1063.85 95.5114C1066.18 95.5114 1068.18 96.0985 1069.85 97.2727C1071.53 98.447 1072.81 100.152 1073.7 102.386C1074.6 104.621 1075.05 107.32 1075.05 110.483C1075.05 113.665 1074.6 116.383 1073.7 118.636C1072.81 120.881 1071.53 122.595 1069.85 123.778C1068.19 124.962 1066.18 125.554 1063.85 125.554ZM1063.85 121.108C1065.66 121.108 1067.1 120.213 1068.15 118.423C1069.21 116.624 1069.74 113.977 1069.74 110.483C1069.74 108.172 1069.5 106.231 1069.02 104.659C1068.53 103.087 1067.85 101.903 1066.97 101.108C1066.09 100.303 1065.05 99.9006 1063.85 99.9006C1062.04 99.9006 1060.61 100.8 1059.56 102.599C1058.5 104.389 1057.97 107.017 1057.97 110.483C1057.96 112.803 1058.19 114.754 1058.66 116.335C1059.14 117.917 1059.83 119.11 1060.71 119.915C1061.59 120.71 1062.63 121.108 1063.85 121.108ZM1090.53 125.554C1088.19 125.554 1086.18 124.962 1084.5 123.778C1082.84 122.585 1081.55 120.866 1080.65 118.622C1079.76 116.368 1079.32 113.655 1079.32 110.483C1079.33 107.311 1079.78 104.612 1080.67 102.386C1081.57 100.152 1082.85 98.447 1084.52 97.2727C1086.19 96.0985 1088.2 95.5114 1090.53 95.5114C1092.86 95.5114 1094.86 96.0985 1096.53 97.2727C1098.21 98.447 1099.49 100.152 1100.38 102.386C1101.28 104.621 1101.73 107.32 1101.73 110.483C1101.73 113.665 1101.28 116.383 1100.38 118.636C1099.49 120.881 1098.21 122.595 1096.53 123.778C1094.87 124.962 1092.86 125.554 1090.53 125.554ZM1090.53 121.108C1092.34 121.108 1093.78 120.213 1094.83 118.423C1095.89 116.624 1096.42 113.977 1096.42 110.483C1096.42 108.172 1096.18 106.231 1095.7 104.659C1095.21 103.087 1094.53 101.903 1093.65 101.108C1092.77 100.303 1091.73 99.9006 1090.53 99.9006C1088.72 99.9006 1087.29 100.8 1086.24 102.599C1085.18 104.389 1084.65 107.017 1084.64 110.483C1084.64 112.803 1084.87 114.754 1085.34 116.335C1085.82 117.917 1086.51 119.11 1087.39 119.915C1088.27 120.71 1089.31 121.108 1090.53 121.108ZM1117.21 125.554C1114.87 125.554 1112.86 124.962 1111.18 123.778C1109.52 122.585 1108.23 120.866 1107.33 118.622C1106.44 116.368 1106 113.655 1106 110.483C1106.01 107.311 1106.46 104.612 1107.35 102.386C1108.25 100.152 1109.53 98.447 1111.2 97.2727C1112.87 96.0985 1114.88 95.5114 1117.21 95.5114C1119.53 95.5114 1121.54 96.0985 1123.21 97.2727C1124.89 98.447 1126.17 100.152 1127.06 102.386C1127.96 104.621 1128.41 107.32 1128.41 110.483C1128.41 113.665 1127.96 116.383 1127.06 118.636C1126.17 120.881 1124.89 122.595 1123.21 123.778C1121.55 124.962 1119.54 125.554 1117.21 125.554ZM1117.21 121.108C1119.02 121.108 1120.46 120.213 1121.51 118.423C1122.57 116.624 1123.1 113.977 1123.1 110.483C1123.1 108.172 1122.86 106.231 1122.38 104.659C1121.89 103.087 1121.21 101.903 1120.33 101.108C1119.45 100.303 1118.41 99.9006 1117.21 99.9006C1115.4 99.9006 1113.97 100.8 1112.92 102.599C1111.86 104.389 1111.33 107.017 1111.32 110.483C1111.32 112.803 1111.55 114.754 1112.02 116.335C1112.5 117.917 1113.19 119.11 1114.07 119.915C1114.95 120.71 1115.99 121.108 1117.21 121.108ZM1138.09 121.023L1137.91 122.585C1137.78 123.778 1137.54 124.991 1137.2 126.222C1136.87 127.462 1136.52 128.603 1136.15 129.645C1135.78 130.687 1135.48 131.506 1135.25 132.102H1131.79C1131.92 131.525 1132.1 130.739 1132.33 129.744C1132.56 128.75 1132.79 127.633 1133.01 126.392C1133.23 125.152 1133.37 123.892 1133.45 122.614L1133.55 121.023H1138.09ZM1153.42 125.554C1151.08 125.554 1149.07 124.962 1147.39 123.778C1145.73 122.585 1144.44 120.866 1143.54 118.622C1142.65 116.368 1142.21 113.655 1142.21 110.483C1142.22 107.311 1142.67 104.612 1143.56 102.386C1144.46 100.152 1145.74 98.447 1147.41 97.2727C1149.08 96.0985 1151.09 95.5114 1153.42 95.5114C1155.75 95.5114 1157.75 96.0985 1159.42 97.2727C1161.1 98.447 1162.38 100.152 1163.27 102.386C1164.17 104.621 1164.62 107.32 1164.62 110.483C1164.62 113.665 1164.17 116.383 1163.27 118.636C1162.38 120.881 1161.1 122.595 1159.42 123.778C1157.76 124.962 1155.76 125.554 1153.42 125.554ZM1153.42 121.108C1155.23 121.108 1156.67 120.213 1157.72 118.423C1158.78 116.624 1159.31 113.977 1159.31 110.483C1159.31 108.172 1159.07 106.231 1158.59 104.659C1158.1 103.087 1157.42 101.903 1156.54 101.108C1155.66 100.303 1154.62 99.9006 1153.42 99.9006C1151.61 99.9006 1150.18 100.8 1149.13 102.599C1148.08 104.389 1147.54 107.017 1147.54 110.483C1147.53 112.803 1147.76 114.754 1148.23 116.335C1148.71 117.917 1149.4 119.11 1150.28 119.915C1151.16 120.71 1152.2 121.108 1153.42 121.108ZM1180.1 125.554C1177.76 125.554 1175.75 124.962 1174.07 123.778C1172.41 122.585 1171.12 120.866 1170.22 118.622C1169.33 116.368 1168.89 113.655 1168.89 110.483C1168.9 107.311 1169.35 104.612 1170.24 102.386C1171.14 100.152 1172.42 98.447 1174.09 97.2727C1175.76 96.0985 1177.77 95.5114 1180.1 95.5114C1182.43 95.5114 1184.43 96.0985 1186.1 97.2727C1187.78 98.447 1189.06 100.152 1189.95 102.386C1190.85 104.621 1191.3 107.32 1191.3 110.483C1191.3 113.665 1190.85 116.383 1189.95 118.636C1189.06 120.881 1187.78 122.595 1186.1 123.778C1184.44 124.962 1182.43 125.554 1180.1 125.554ZM1180.1 121.108C1181.91 121.108 1183.35 120.213 1184.4 118.423C1185.46 116.624 1185.99 113.977 1185.99 110.483C1185.99 108.172 1185.75 106.231 1185.27 104.659C1184.78 103.087 1184.1 101.903 1183.22 101.108C1182.34 100.303 1181.3 99.9006 1180.1 99.9006C1178.29 99.9006 1176.86 100.8 1175.81 102.599C1174.75 104.389 1174.22 107.017 1174.22 110.483C1174.21 112.803 1174.44 114.754 1174.91 116.335C1175.39 117.917 1176.08 119.11 1176.96 119.915C1177.84 120.71 1178.88 121.108 1180.1 121.108ZM1206.78 125.554C1204.44 125.554 1202.43 124.962 1200.75 123.778C1199.09 122.585 1197.8 120.866 1196.9 118.622C1196.01 116.368 1195.57 113.655 1195.57 110.483C1195.58 107.311 1196.03 104.612 1196.92 102.386C1197.82 100.152 1199.1 98.447 1200.77 97.2727C1202.44 96.0985 1204.45 95.5114 1206.78 95.5114C1209.11 95.5114 1211.11 96.0985 1212.78 97.2727C1214.46 98.447 1215.74 100.152 1216.63 102.386C1217.53 104.621 1217.98 107.32 1217.98 110.483C1217.98 113.665 1217.53 116.383 1216.63 118.636C1215.74 120.881 1214.46 122.595 1212.78 123.778C1211.12 124.962 1209.11 125.554 1206.78 125.554ZM1206.78 121.108C1208.59 121.108 1210.03 120.213 1211.08 118.423C1212.14 116.624 1212.67 113.977 1212.67 110.483C1212.67 108.172 1212.43 106.231 1211.95 104.659C1211.46 103.087 1210.78 101.903 1209.9 101.108C1209.02 100.303 1207.98 99.9006 1206.78 99.9006C1204.97 99.9006 1203.54 100.8 1202.49 102.599C1201.43 104.389 1200.9 107.017 1200.89 110.483C1200.89 112.803 1201.12 114.754 1201.59 116.335C1202.07 117.917 1202.76 119.11 1203.64 119.915C1204.52 120.71 1205.56 121.108 1206.78 121.108ZM1016.53 153V142.091H1018.15V143.795H1018.3C1018.52 143.213 1018.89 142.761 1019.4 142.439C1019.9 142.112 1020.51 141.949 1021.22 141.949C1021.94 141.949 1022.54 142.112 1023.02 142.439C1023.5 142.761 1023.88 143.213 1024.15 143.795H1024.26C1024.54 143.232 1024.96 142.785 1025.52 142.453C1026.08 142.117 1026.75 141.949 1027.53 141.949C1028.5 141.949 1029.3 142.254 1029.92 142.865C1030.54 143.471 1030.85 144.416 1030.85 145.699V153H1029.18V145.699C1029.18 144.894 1028.96 144.319 1028.52 143.973C1028.08 143.627 1027.56 143.455 1026.96 143.455C1026.19 143.455 1025.6 143.687 1025.18 144.151C1024.76 144.61 1024.55 145.192 1024.55 145.898V153H1022.84V145.528C1022.84 144.908 1022.64 144.409 1022.24 144.03C1021.83 143.646 1021.32 143.455 1020.68 143.455C1020.25 143.455 1019.84 143.571 1019.46 143.803C1019.09 144.035 1018.78 144.357 1018.55 144.768C1018.32 145.176 1018.21 145.647 1018.21 146.182V153H1016.53ZM1033.38 145.727V144.619L1036.7 141.665C1037.03 141.371 1037.31 141.108 1037.53 140.876C1037.75 140.644 1037.92 140.42 1038.04 140.202C1038.15 139.984 1038.21 139.752 1038.21 139.506C1038.21 139.08 1038.04 138.741 1037.72 138.49C1037.39 138.239 1036.99 138.114 1036.5 138.114C1035.99 138.114 1035.58 138.251 1035.27 138.526C1034.95 138.795 1034.8 139.151 1034.8 139.591H1033.32C1033.32 138.781 1033.62 138.13 1034.22 137.638C1034.82 137.141 1035.59 136.892 1036.53 136.892C1037.16 136.892 1037.7 137.006 1038.18 137.233C1038.65 137.455 1039.02 137.763 1039.29 138.156C1039.55 138.545 1039.68 138.985 1039.68 139.477C1039.68 139.866 1039.61 140.225 1039.45 140.557C1039.29 140.888 1039.05 141.232 1038.72 141.587C1038.39 141.942 1037.96 142.347 1037.44 142.801L1035.59 144.42V144.477H1039.94V145.727H1033.38ZM1052.53 153.227C1051.48 153.227 1050.58 152.995 1049.81 152.531C1049.06 152.062 1048.47 151.409 1048.06 150.571C1047.65 149.728 1047.45 148.748 1047.45 147.631C1047.45 146.513 1047.65 145.528 1048.06 144.676C1048.47 143.819 1049.04 143.152 1049.78 142.673C1050.52 142.19 1051.38 141.949 1052.36 141.949C1052.93 141.949 1053.49 142.044 1054.05 142.233C1054.6 142.422 1055.1 142.73 1055.56 143.156C1056.01 143.578 1056.38 144.136 1056.65 144.832C1056.92 145.528 1057.05 146.385 1057.05 147.403V148.114H1048.64V146.665H1055.35C1055.35 146.049 1055.22 145.5 1054.98 145.017C1054.74 144.534 1054.39 144.153 1053.94 143.874C1053.49 143.594 1052.97 143.455 1052.36 143.455C1051.7 143.455 1051.12 143.62 1050.63 143.952C1050.15 144.278 1049.78 144.705 1049.52 145.23C1049.25 145.756 1049.12 146.319 1049.12 146.92V147.886C1049.12 148.71 1049.27 149.409 1049.55 149.982C1049.84 150.55 1050.24 150.983 1050.75 151.281C1051.26 151.575 1051.86 151.722 1052.53 151.722C1052.97 151.722 1053.37 151.66 1053.73 151.537C1054.09 151.409 1054.4 151.22 1054.66 150.969C1054.92 150.713 1055.12 150.396 1055.26 150.017L1056.88 150.472C1056.71 151.021 1056.42 151.504 1056.02 151.92C1055.62 152.332 1055.12 152.654 1054.53 152.886C1053.94 153.114 1053.27 153.227 1052.53 153.227ZM1059.6 153V142.091H1061.22V143.795H1061.36C1061.59 143.213 1061.96 142.761 1062.46 142.439C1062.97 142.112 1063.58 141.949 1064.29 141.949C1065.01 141.949 1065.61 142.112 1066.08 142.439C1066.57 142.761 1066.94 143.213 1067.21 143.795H1067.33C1067.61 143.232 1068.03 142.785 1068.58 142.453C1069.14 142.117 1069.81 141.949 1070.59 141.949C1071.57 141.949 1072.37 142.254 1072.99 142.865C1073.61 143.471 1073.92 144.416 1073.92 145.699V153H1072.24V145.699C1072.24 144.894 1072.02 144.319 1071.58 143.973C1071.14 143.627 1070.62 143.455 1070.03 143.455C1069.26 143.455 1068.67 143.687 1068.24 144.151C1067.82 144.61 1067.61 145.192 1067.61 145.898V153H1065.91V145.528C1065.91 144.908 1065.71 144.409 1065.3 144.03C1064.9 143.646 1064.38 143.455 1063.75 143.455C1063.31 143.455 1062.91 143.571 1062.53 143.803C1062.15 144.035 1061.85 144.357 1061.62 144.768C1061.39 145.176 1061.28 145.647 1061.28 146.182V153H1059.6ZM1082.61 157.091V142.091H1084.23V143.824H1084.43C1084.55 143.634 1084.72 143.393 1084.94 143.099C1085.16 142.801 1085.48 142.536 1085.89 142.304C1086.31 142.067 1086.87 141.949 1087.58 141.949C1088.5 141.949 1089.31 142.179 1090.01 142.638C1090.71 143.097 1091.26 143.748 1091.65 144.591C1092.04 145.434 1092.24 146.428 1092.24 147.574C1092.24 148.729 1092.04 149.731 1091.65 150.578C1091.26 151.421 1090.71 152.074 1090.02 152.538C1089.32 152.998 1088.52 153.227 1087.61 153.227C1086.91 153.227 1086.35 153.111 1085.93 152.879C1085.5 152.643 1085.18 152.375 1084.95 152.077C1084.72 151.774 1084.55 151.523 1084.43 151.324H1084.28V157.091H1082.61ZM1084.26 147.545C1084.26 148.369 1084.38 149.096 1084.62 149.726C1084.86 150.351 1085.21 150.841 1085.68 151.196C1086.14 151.546 1086.71 151.722 1087.38 151.722C1088.08 151.722 1088.67 151.537 1089.14 151.168C1089.61 150.794 1089.96 150.292 1090.2 149.662C1090.44 149.027 1090.56 148.322 1090.56 147.545C1090.56 146.778 1090.44 146.087 1090.21 145.472C1089.98 144.851 1089.62 144.361 1089.15 144.001C1088.68 143.637 1088.09 143.455 1087.38 143.455C1086.7 143.455 1086.13 143.627 1085.66 143.973C1085.2 144.314 1084.85 144.792 1084.61 145.408C1084.37 146.018 1084.26 146.731 1084.26 147.545ZM1094.8 153V142.091H1096.42V143.739H1096.53C1096.73 143.199 1097.09 142.761 1097.61 142.425C1098.13 142.089 1098.72 141.92 1099.37 141.92C1099.49 141.92 1099.65 141.923 1099.83 141.928C1100.02 141.932 1100.16 141.939 1100.25 141.949V143.653C1100.19 143.639 1100.06 143.618 1099.86 143.589C1099.66 143.556 1099.45 143.54 1099.23 143.54C1098.7 143.54 1098.22 143.651 1097.81 143.874C1097.4 144.091 1097.07 144.394 1096.83 144.783C1096.59 145.166 1096.47 145.604 1096.47 146.097V153H1094.8ZM1106.34 153.227C1105.35 153.227 1104.49 152.993 1103.74 152.524C1103.01 152.055 1102.43 151.4 1102.01 150.557C1101.6 149.714 1101.39 148.729 1101.39 147.602C1101.39 146.466 1101.6 145.474 1102.01 144.626C1102.43 143.779 1103.01 143.121 1103.74 142.652C1104.49 142.183 1105.35 141.949 1106.34 141.949C1107.32 141.949 1108.18 142.183 1108.92 142.652C1109.67 143.121 1110.24 143.779 1110.66 144.626C1111.07 145.474 1111.28 146.466 1111.28 147.602C1111.28 148.729 1111.07 149.714 1110.66 150.557C1110.24 151.4 1109.67 152.055 1108.92 152.524C1108.18 152.993 1107.32 153.227 1106.34 153.227ZM1106.34 151.722C1107.09 151.722 1107.7 151.53 1108.18 151.146C1108.67 150.763 1109.02 150.259 1109.26 149.634C1109.49 149.009 1109.6 148.331 1109.6 147.602C1109.6 146.873 1109.49 146.194 1109.26 145.564C1109.02 144.934 1108.67 144.425 1108.18 144.037C1107.7 143.649 1107.09 143.455 1106.34 143.455C1105.59 143.455 1104.97 143.649 1104.49 144.037C1104.01 144.425 1103.65 144.934 1103.42 145.564C1103.19 146.194 1103.07 146.873 1103.07 147.602C1103.07 148.331 1103.19 149.009 1103.42 149.634C1103.65 150.259 1104.01 150.763 1104.49 151.146C1104.97 151.53 1105.59 151.722 1106.34 151.722ZM1113.84 142.091H1115.51V153.795C1115.51 154.468 1115.4 155.05 1115.17 155.543C1114.94 156.035 1114.59 156.416 1114.13 156.686C1113.67 156.956 1113.09 157.091 1112.39 157.091C1112.33 157.091 1112.28 157.091 1112.22 157.091C1112.16 157.091 1112.11 157.091 1112.05 157.091V155.528C1112.11 155.528 1112.16 155.528 1112.21 155.528C1112.25 155.528 1112.3 155.528 1112.36 155.528C1112.87 155.528 1113.25 155.377 1113.48 155.074C1113.72 154.776 1113.84 154.349 1113.84 153.795V142.091ZM1114.66 140.273C1114.34 140.273 1114.05 140.161 1113.82 139.939C1113.59 139.716 1113.47 139.449 1113.47 139.136C1113.47 138.824 1113.59 138.556 1113.82 138.334C1114.05 138.111 1114.34 138 1114.66 138C1114.99 138 1115.27 138.111 1115.5 138.334C1115.74 138.556 1115.86 138.824 1115.86 139.136C1115.86 139.449 1115.74 139.716 1115.5 139.939C1115.27 140.161 1114.99 140.273 1114.66 140.273ZM1123.16 153.227C1122.11 153.227 1121.2 152.995 1120.44 152.531C1119.68 152.062 1119.1 151.409 1118.68 150.571C1118.28 149.728 1118.07 148.748 1118.07 147.631C1118.07 146.513 1118.28 145.528 1118.68 144.676C1119.1 143.819 1119.67 143.152 1120.4 142.673C1121.14 142.19 1122 141.949 1122.99 141.949C1123.56 141.949 1124.12 142.044 1124.67 142.233C1125.23 142.422 1125.73 142.73 1126.18 143.156C1126.64 143.578 1127 144.136 1127.27 144.832C1127.54 145.528 1127.68 146.385 1127.68 147.403V148.114H1119.27V146.665H1125.97C1125.97 146.049 1125.85 145.5 1125.6 145.017C1125.36 144.534 1125.01 144.153 1124.56 143.874C1124.12 143.594 1123.59 143.455 1122.99 143.455C1122.32 143.455 1121.74 143.62 1121.26 143.952C1120.77 144.278 1120.4 144.705 1120.14 145.23C1119.88 145.756 1119.75 146.319 1119.75 146.92V147.886C1119.75 148.71 1119.89 149.409 1120.18 149.982C1120.46 150.55 1120.86 150.983 1121.38 151.281C1121.89 151.575 1122.48 151.722 1123.16 151.722C1123.6 151.722 1124 151.66 1124.35 151.537C1124.71 151.409 1125.02 151.22 1125.28 150.969C1125.54 150.713 1125.74 150.396 1125.89 150.017L1127.51 150.472C1127.33 151.021 1127.05 151.504 1126.65 151.92C1126.24 152.332 1125.75 152.654 1125.15 152.886C1124.56 153.114 1123.9 153.227 1123.16 153.227ZM1134.97 142.091V143.511H1129.32V142.091H1134.97ZM1130.96 139.477H1132.64V149.875C1132.64 150.348 1132.71 150.704 1132.85 150.94C1132.99 151.172 1133.17 151.329 1133.39 151.409C1133.61 151.485 1133.84 151.523 1134.09 151.523C1134.27 151.523 1134.43 151.513 1134.54 151.494C1134.66 151.471 1134.76 151.452 1134.83 151.438L1135.17 152.943C1135.06 152.986 1134.9 153.028 1134.69 153.071C1134.49 153.118 1134.23 153.142 1133.92 153.142C1133.45 153.142 1132.98 153.04 1132.53 152.837C1132.08 152.633 1131.7 152.323 1131.4 151.906C1131.11 151.49 1130.96 150.964 1130.96 150.33V139.477ZM1141.81 153.227C1140.82 153.227 1139.96 152.993 1139.21 152.524C1138.47 152.055 1137.9 151.4 1137.48 150.557C1137.07 149.714 1136.86 148.729 1136.86 147.602C1136.86 146.466 1137.07 145.474 1137.48 144.626C1137.9 143.779 1138.47 143.121 1139.21 142.652C1139.96 142.183 1140.82 141.949 1141.81 141.949C1142.79 141.949 1143.65 142.183 1144.39 142.652C1145.13 143.121 1145.71 143.779 1146.12 144.626C1146.54 145.474 1146.75 146.466 1146.75 147.602C1146.75 148.729 1146.54 149.714 1146.12 150.557C1145.71 151.4 1145.13 152.055 1144.39 152.524C1143.65 152.993 1142.79 153.227 1141.81 153.227ZM1141.81 151.722C1142.55 151.722 1143.17 151.53 1143.65 151.146C1144.14 150.763 1144.49 150.259 1144.72 149.634C1144.96 149.009 1145.07 148.331 1145.07 147.602C1145.07 146.873 1144.96 146.194 1144.72 145.564C1144.49 144.934 1144.14 144.425 1143.65 144.037C1143.17 143.649 1142.55 143.455 1141.81 143.455C1141.06 143.455 1140.44 143.649 1139.96 144.037C1139.48 144.425 1139.12 144.934 1138.89 145.564C1138.65 146.194 1138.54 146.873 1138.54 147.602C1138.54 148.331 1138.65 149.009 1138.89 149.634C1139.12 150.259 1139.48 150.763 1139.96 151.146C1140.44 151.53 1141.06 151.722 1141.81 151.722ZM1157.03 144.534L1155.53 144.96C1155.43 144.709 1155.29 144.465 1155.11 144.229C1154.93 143.987 1154.68 143.788 1154.37 143.632C1154.06 143.476 1153.66 143.398 1153.17 143.398C1152.5 143.398 1151.95 143.552 1151.5 143.859C1151.06 144.162 1150.84 144.548 1150.84 145.017C1150.84 145.434 1150.99 145.763 1151.3 146.004C1151.6 146.246 1152.07 146.447 1152.72 146.608L1154.34 147.006C1155.31 147.242 1156.04 147.605 1156.52 148.092C1156.99 148.575 1157.23 149.198 1157.23 149.96C1157.23 150.585 1157.05 151.144 1156.69 151.636C1156.34 152.129 1155.84 152.517 1155.2 152.801C1154.56 153.085 1153.82 153.227 1152.97 153.227C1151.86 153.227 1150.94 152.986 1150.21 152.503C1149.48 152.02 1149.02 151.314 1148.82 150.386L1150.42 149.989C1150.57 150.576 1150.85 151.016 1151.27 151.31C1151.7 151.603 1152.26 151.75 1152.94 151.75C1153.73 151.75 1154.35 151.584 1154.8 151.253C1155.27 150.917 1155.5 150.514 1155.5 150.045C1155.5 149.667 1155.37 149.349 1155.1 149.094C1154.84 148.833 1154.43 148.639 1153.88 148.511L1152.06 148.085C1151.06 147.848 1150.33 147.482 1149.86 146.984C1149.4 146.482 1149.17 145.855 1149.17 145.102C1149.17 144.487 1149.34 143.942 1149.68 143.469C1150.03 142.995 1150.51 142.624 1151.11 142.354C1151.72 142.084 1152.4 141.949 1153.17 141.949C1154.25 141.949 1155.1 142.186 1155.71 142.659C1156.33 143.133 1156.77 143.758 1157.03 144.534ZM1169.81 153.227C1168.79 153.227 1167.91 152.986 1167.17 152.503C1166.43 152.02 1165.86 151.355 1165.47 150.507C1165.07 149.66 1164.87 148.691 1164.87 147.602C1164.87 146.494 1165.07 145.517 1165.48 144.669C1165.89 143.817 1166.47 143.152 1167.2 142.673C1167.94 142.19 1168.8 141.949 1169.79 141.949C1170.55 141.949 1171.24 142.091 1171.86 142.375C1172.47 142.659 1172.98 143.057 1173.37 143.568C1173.76 144.08 1174.01 144.676 1174.1 145.358H1172.43C1172.3 144.861 1172.02 144.42 1171.57 144.037C1171.14 143.649 1170.55 143.455 1169.81 143.455C1169.16 143.455 1168.59 143.625 1168.09 143.966C1167.61 144.302 1167.23 144.778 1166.95 145.393C1166.68 146.004 1166.55 146.722 1166.55 147.545C1166.55 148.388 1166.68 149.122 1166.94 149.747C1167.21 150.372 1167.59 150.857 1168.08 151.203C1168.57 151.549 1169.15 151.722 1169.81 151.722C1170.25 151.722 1170.64 151.646 1171 151.494C1171.35 151.343 1171.66 151.125 1171.9 150.841C1172.15 150.557 1172.32 150.216 1172.43 149.818H1174.1C1174.01 150.462 1173.77 151.042 1173.4 151.558C1173.03 152.07 1172.54 152.477 1171.93 152.78C1171.32 153.078 1170.62 153.227 1169.81 153.227ZM1180.99 153.227C1180 153.227 1179.14 152.993 1178.39 152.524C1177.65 152.055 1177.08 151.4 1176.66 150.557C1176.25 149.714 1176.04 148.729 1176.04 147.602C1176.04 146.466 1176.25 145.474 1176.66 144.626C1177.08 143.779 1177.65 143.121 1178.39 142.652C1179.14 142.183 1180 141.949 1180.99 141.949C1181.97 141.949 1182.83 142.183 1183.57 142.652C1184.31 143.121 1184.89 143.779 1185.3 144.626C1185.72 145.474 1185.93 146.466 1185.93 147.602C1185.93 148.729 1185.72 149.714 1185.3 150.557C1184.89 151.4 1184.31 152.055 1183.57 152.524C1182.83 152.993 1181.97 153.227 1180.99 153.227ZM1180.99 151.722C1181.73 151.722 1182.35 151.53 1182.83 151.146C1183.31 150.763 1183.67 150.259 1183.9 149.634C1184.14 149.009 1184.25 148.331 1184.25 147.602C1184.25 146.873 1184.14 146.194 1183.9 145.564C1183.67 144.934 1183.31 144.425 1182.83 144.037C1182.35 143.649 1181.73 143.455 1180.99 143.455C1180.24 143.455 1179.62 143.649 1179.14 144.037C1178.66 144.425 1178.3 144.934 1178.07 145.564C1177.83 146.194 1177.72 146.873 1177.72 147.602C1177.72 148.331 1177.83 149.009 1178.07 149.634C1178.3 150.259 1178.66 150.763 1179.14 151.146C1179.62 151.53 1180.24 151.722 1180.99 151.722ZM1190.16 146.438V153H1188.49V142.091H1190.11V143.795H1190.25C1190.5 143.241 1190.89 142.796 1191.41 142.46C1191.93 142.119 1192.61 141.949 1193.43 141.949C1194.17 141.949 1194.82 142.1 1195.37 142.403C1195.92 142.702 1196.35 143.156 1196.66 143.767C1196.97 144.373 1197.12 145.14 1197.12 146.068V153H1195.45V146.182C1195.45 145.325 1195.22 144.657 1194.78 144.179C1194.33 143.696 1193.72 143.455 1192.95 143.455C1192.41 143.455 1191.93 143.571 1191.51 143.803C1191.1 144.035 1190.77 144.373 1190.53 144.818C1190.28 145.263 1190.16 145.803 1190.16 146.438ZM1207.91 144.534L1206.41 144.96C1206.31 144.709 1206.17 144.465 1205.99 144.229C1205.81 143.987 1205.56 143.788 1205.25 143.632C1204.94 143.476 1204.54 143.398 1204.05 143.398C1203.38 143.398 1202.83 143.552 1202.38 143.859C1201.94 144.162 1201.72 144.548 1201.72 145.017C1201.72 145.434 1201.87 145.763 1202.18 146.004C1202.48 146.246 1202.95 146.447 1203.6 146.608L1205.21 147.006C1206.19 147.242 1206.92 147.605 1207.4 148.092C1207.87 148.575 1208.11 149.198 1208.11 149.96C1208.11 150.585 1207.93 151.144 1207.57 151.636C1207.22 152.129 1206.72 152.517 1206.08 152.801C1205.44 153.085 1204.7 153.227 1203.85 153.227C1202.74 153.227 1201.82 152.986 1201.09 152.503C1200.36 152.02 1199.9 151.314 1199.7 150.386L1201.29 149.989C1201.45 150.576 1201.73 151.016 1202.15 151.31C1202.58 151.603 1203.14 151.75 1203.82 151.75C1204.6 151.75 1205.22 151.584 1205.68 151.253C1206.15 150.917 1206.38 150.514 1206.38 150.045C1206.38 149.667 1206.25 149.349 1205.98 149.094C1205.72 148.833 1205.31 148.639 1204.76 148.511L1202.94 148.085C1201.94 147.848 1201.21 147.482 1200.74 146.984C1200.28 146.482 1200.04 145.855 1200.04 145.102C1200.04 144.487 1200.22 143.942 1200.56 143.469C1200.91 142.995 1201.39 142.624 1201.99 142.354C1202.6 142.084 1203.28 141.949 1204.05 141.949C1205.13 141.949 1205.98 142.186 1206.59 142.659C1207.21 143.133 1207.65 143.758 1207.91 144.534ZM1215.38 142.091V143.511H1209.73V142.091H1215.38ZM1211.37 139.477H1213.05V149.875C1213.05 150.348 1213.12 150.704 1213.26 150.94C1213.4 151.172 1213.58 151.329 1213.8 151.409C1214.02 151.485 1214.25 151.523 1214.5 151.523C1214.68 151.523 1214.84 151.513 1214.95 151.494C1215.07 151.471 1215.17 151.452 1215.24 151.438L1215.58 152.943C1215.47 152.986 1215.31 153.028 1215.1 153.071C1214.9 153.118 1214.64 153.142 1214.33 153.142C1213.86 153.142 1213.39 153.04 1212.94 152.837C1212.49 152.633 1212.11 152.323 1211.81 151.906C1211.52 151.49 1211.37 150.964 1211.37 150.33V139.477ZM1217.9 153V142.091H1219.52V143.739H1219.63C1219.83 143.199 1220.19 142.761 1220.71 142.425C1221.23 142.089 1221.82 141.92 1222.48 141.92C1222.6 141.92 1222.75 141.923 1222.94 141.928C1223.12 141.932 1223.26 141.939 1223.36 141.949V143.653C1223.3 143.639 1223.17 143.618 1222.97 143.589C1222.77 143.556 1222.56 143.54 1222.33 143.54C1221.8 143.54 1221.33 143.651 1220.91 143.874C1220.5 144.091 1220.17 144.394 1219.93 144.783C1219.7 145.166 1219.58 145.604 1219.58 146.097V153H1217.9ZM1232.22 148.54V142.091H1233.89V153H1232.22V151.153H1232.1C1231.85 151.707 1231.45 152.179 1230.91 152.567C1230.37 152.95 1229.69 153.142 1228.87 153.142C1228.18 153.142 1227.58 152.993 1227.05 152.695C1226.52 152.392 1226.1 151.937 1225.8 151.331C1225.49 150.72 1225.34 149.951 1225.34 149.023V142.091H1227.02V148.909C1227.02 149.705 1227.24 150.339 1227.69 150.812C1228.14 151.286 1228.71 151.523 1229.41 151.523C1229.82 151.523 1230.25 151.416 1230.68 151.203C1231.11 150.99 1231.48 150.663 1231.77 150.223C1232.07 149.783 1232.22 149.222 1232.22 148.54ZM1236.96 153V142.091H1238.64V153H1236.96ZM1237.05 140.614L1238.78 137.318H1240.74L1238.53 140.614H1237.05ZM1245.83 153.227C1244.92 153.227 1244.12 152.998 1243.42 152.538C1242.73 152.074 1242.18 151.421 1241.79 150.578C1241.4 149.731 1241.2 148.729 1241.2 147.574C1241.2 146.428 1241.4 145.434 1241.79 144.591C1242.18 143.748 1242.73 143.097 1243.43 142.638C1244.13 142.179 1244.94 141.949 1245.86 141.949C1246.57 141.949 1247.13 142.067 1247.54 142.304C1247.96 142.536 1248.27 142.801 1248.49 143.099C1248.72 143.393 1248.89 143.634 1249.01 143.824H1249.15V138.455H1250.83V153H1249.21V151.324H1249.01C1248.89 151.523 1248.71 151.774 1248.49 152.077C1248.26 152.375 1247.93 152.643 1247.51 152.879C1247.09 153.111 1246.53 153.227 1245.83 153.227ZM1246.06 151.722C1246.73 151.722 1247.3 151.546 1247.76 151.196C1248.23 150.841 1248.58 150.351 1248.82 149.726C1249.06 149.096 1249.18 148.369 1249.18 147.545C1249.18 146.731 1249.06 146.018 1248.83 145.408C1248.59 144.792 1248.24 144.314 1247.78 143.973C1247.31 143.627 1246.74 143.455 1246.06 143.455C1245.35 143.455 1244.75 143.637 1244.28 144.001C1243.81 144.361 1243.46 144.851 1243.22 145.472C1242.99 146.087 1242.87 146.778 1242.87 147.545C1242.87 148.322 1242.99 149.027 1243.23 149.662C1243.47 150.292 1243.83 150.794 1244.3 151.168C1244.77 151.537 1245.36 151.722 1246.06 151.722ZM1258.56 153.227C1257.58 153.227 1256.71 152.993 1255.97 152.524C1255.23 152.055 1254.65 151.4 1254.24 150.557C1253.83 149.714 1253.62 148.729 1253.62 147.602C1253.62 146.466 1253.83 145.474 1254.24 144.626C1254.65 143.779 1255.23 143.121 1255.97 142.652C1256.71 142.183 1257.58 141.949 1258.56 141.949C1259.55 141.949 1260.41 142.183 1261.15 142.652C1261.89 143.121 1262.47 143.779 1262.88 144.626C1263.3 145.474 1263.51 146.466 1263.51 147.602C1263.51 148.729 1263.3 149.714 1262.88 150.557C1262.47 151.4 1261.89 152.055 1261.15 152.524C1260.41 152.993 1259.55 153.227 1258.56 153.227ZM1258.56 151.722C1259.31 151.722 1259.93 151.53 1260.41 151.146C1260.89 150.763 1261.25 150.259 1261.48 149.634C1261.71 149.009 1261.83 148.331 1261.83 147.602C1261.83 146.873 1261.71 146.194 1261.48 145.564C1261.25 144.934 1260.89 144.425 1260.41 144.037C1259.93 143.649 1259.31 143.455 1258.56 143.455C1257.82 143.455 1257.2 143.649 1256.72 144.037C1256.23 144.425 1255.88 144.934 1255.64 145.564C1255.41 146.194 1255.3 146.873 1255.3 147.602C1255.3 148.331 1255.41 149.009 1255.64 149.634C1255.88 150.259 1256.23 150.763 1256.72 151.146C1257.2 151.53 1257.82 151.722 1258.56 151.722ZM1273.79 144.534L1272.29 144.96C1272.19 144.709 1272.05 144.465 1271.87 144.229C1271.69 143.987 1271.44 143.788 1271.13 143.632C1270.82 143.476 1270.42 143.398 1269.93 143.398C1269.26 143.398 1268.71 143.552 1268.26 143.859C1267.82 144.162 1267.6 144.548 1267.6 145.017C1267.6 145.434 1267.75 145.763 1268.05 146.004C1268.36 146.246 1268.83 146.447 1269.47 146.608L1271.09 147.006C1272.07 147.242 1272.8 147.605 1273.27 148.092C1273.75 148.575 1273.99 149.198 1273.99 149.96C1273.99 150.585 1273.81 151.144 1273.45 151.636C1273.1 152.129 1272.6 152.517 1271.96 152.801C1271.32 153.085 1270.58 153.227 1269.73 153.227C1268.62 153.227 1267.7 152.986 1266.97 152.503C1266.24 152.02 1265.78 151.314 1265.58 150.386L1267.17 149.989C1267.32 150.576 1267.61 151.016 1268.03 151.31C1268.46 151.603 1269.02 151.75 1269.7 151.75C1270.48 151.75 1271.1 151.584 1271.56 151.253C1272.03 150.917 1272.26 150.514 1272.26 150.045C1272.26 149.667 1272.13 149.349 1271.86 149.094C1271.6 148.833 1271.19 148.639 1270.64 148.511L1268.82 148.085C1267.82 147.848 1267.09 147.482 1266.62 146.984C1266.16 146.482 1265.92 145.855 1265.92 145.102C1265.92 144.487 1266.1 143.942 1266.44 143.469C1266.79 142.995 1267.27 142.624 1267.87 142.354C1268.48 142.084 1269.16 141.949 1269.93 141.949C1271.01 141.949 1271.86 142.186 1272.47 142.659C1273.09 143.133 1273.53 143.758 1273.79 144.534Z" fill="black"/>
</svg>

